<svg width="211" height="70" viewBox="0 0 211 70" fill="none" xmlns="http://www.w3.org/2000/svg">
<path d="M92.288 48.632C92.608 48.312 92.928 48.376 93.184 48.76C94.016 49.976 95.552 51 98.112 51H103.296C106.752 51 105.216 46.52 104.896 44.6L102.016 28.024C100.992 22.136 95.744 18.488 88.448 18.488C83.904 18.488 78.848 19 76.032 22.712C72.896 26.872 74.752 32.696 79.552 32.696C80.064 32.696 80.704 32.632 81.344 32.44C88 30.648 83.456 22.008 86.272 20.984C87.488 20.536 88.256 21.432 88.96 25.656L90.304 33.848C90.368 34.296 90.112 34.616 89.664 34.552C87.936 34.424 85.888 34.296 84.608 34.296C77.504 34.296 72.64 37.368 72.64 42.872C72.64 47.992 77.312 51.64 83.456 51.64C87.232 51.64 90.176 50.936 92.288 48.632ZM90.944 37.944L91.776 42.744C92.096 46.456 90.816 47.8 89.728 48.056C87.872 48.504 86.208 46.968 85.696 42.808C85.12 38.328 86.976 36.728 88.576 36.728C89.472 36.728 90.816 36.856 90.944 37.944ZM122.176 19.192C121.728 19.384 121.344 19.32 120.832 18.872C120.256 18.424 119.424 18.232 118.336 18.424L111.488 19.576C109.248 19.96 107.712 21.368 107.712 23.608C107.712 25.144 108.608 26.808 108.608 28.152V51.192C108.608 52.344 107.776 54.328 107.776 55.48C107.776 57.528 109.632 59.128 112.064 59.128H117.952C120.384 59.128 122.24 57.528 122.24 55.48C122.24 54.52 121.664 52.984 121.472 51.832C121.408 51.256 121.792 51.064 122.368 51.192C123.52 51.512 124.8 51.64 126.272 51.64C135.04 51.64 142.144 45.688 142.144 35C142.144 24.312 135.232 18.36 126.784 18.36C124.864 18.36 123.392 18.616 122.176 19.192ZM126.144 49.4C123.712 49.72 121.408 45.496 121.408 37.816V26.36C121.536 23.096 121.92 21.432 123.392 21.24C126.08 20.856 127.232 25.016 128.256 34.616C129.28 43.96 128.448 49.144 126.144 49.4ZM163.601 48.632C163.921 48.312 164.241 48.376 164.497 48.76C165.329 49.976 166.865 51 169.425 51H174.609C178.065 51 176.529 46.52 176.208 44.6L173.329 28.024C172.305 22.136 167.057 18.488 159.76 18.488C155.217 18.488 150.161 19 147.345 22.712C144.209 26.872 146.065 32.696 150.865 32.696C151.377 32.696 152.017 32.632 152.657 32.44C159.312 30.648 154.769 22.008 157.585 20.984C158.801 20.536 159.569 21.432 160.273 25.656L161.617 33.848C161.681 34.296 161.425 34.616 160.977 34.552C159.249 34.424 157.201 34.296 155.921 34.296C148.817 34.296 143.953 37.368 143.953 42.872C143.953 47.992 148.625 51.64 154.769 51.64C158.545 51.64 161.489 50.936 163.601 48.632ZM162.257 37.944L163.089 42.744C163.409 46.456 162.128 47.8 161.041 48.056C159.185 48.504 157.521 46.968 157.009 42.808C156.433 38.328 158.289 36.728 159.889 36.728C160.785 36.728 162.128 36.856 162.257 37.944ZM198.638 46.008C198.318 46.712 197.934 46.648 197.742 45.88L191.47 20.984C191.086 19.384 190.254 19 188.398 19H179.566C177.518 19 176.686 20.152 176.942 22.136C177.262 24.376 178.414 25.656 178.99 27.96L182.126 40.888C183.598 46.968 188.398 50.488 193.454 50.936C194.222 51 194.35 51.384 193.71 51.768C192.494 52.536 191.406 52.792 190.382 52.792C188.142 52.792 185.966 51.704 182.958 51.704C179.438 51.704 177.518 53.816 177.902 57.016C178.35 60.728 181.23 61.88 184.686 61.88C196.526 61.88 210.606 39.096 210.606 27.128C210.606 20.472 208.814 18.36 204.718 18.36C200.75 18.36 198.126 21.24 198.126 25.528C198.126 30.2 201.966 38.968 198.638 46.008Z" fill="#F27A63"/>
<path fill-rule="evenodd" clip-rule="evenodd" d="M13.6303 6.02502C13.5241 6.04009 13.4136 6.07675 13.3847 6.10645C13.3559 6.13601 13.2876 6.1602 13.233 6.1602C13.1784 6.1602 13.1337 6.18628 13.1337 6.21816C13.1337 6.25003 13.084 6.27611 13.0233 6.27611C12.9626 6.27611 12.913 6.30219 12.913 6.33407C12.913 6.36594 12.8688 6.39202 12.8147 6.39202C12.7608 6.39202 12.6808 6.44418 12.6371 6.50793C12.5933 6.57168 12.5295 6.62384 12.495 6.62384C12.4606 6.62384 12.3661 6.69556 12.2849 6.78322C11.8384 7.2654 11.5485 7.61675 11.4767 7.76294C11.4321 7.85364 11.3789 7.9413 11.3582 7.95767C11.2811 8.01896 10.9817 8.66805 10.9817 8.77411C10.9817 8.83453 10.9569 8.88408 10.9265 8.88408C10.8962 8.88408 10.8713 8.95116 10.8713 9.03317C10.8713 9.26528 10.7312 9.38162 10.5644 9.28773C10.4905 9.2463 10.4299 9.19052 10.4299 9.164C10.4299 9.13763 10.3803 9.1159 10.3196 9.1159C10.2589 9.1159 10.2092 9.08982 10.2092 9.05794C10.2092 9.02607 10.1595 8.99999 10.0988 8.99999C10.0381 8.99999 9.98849 8.97391 9.98849 8.94203C9.98849 8.91016 9.92793 8.88408 9.85385 8.88408C9.77977 8.88408 9.70376 8.858 9.685 8.82612C9.66624 8.79425 9.60265 8.76817 9.54374 8.76817C9.48484 8.76817 9.4367 8.74209 9.4367 8.71021C9.4367 8.67834 9.36372 8.65226 9.27447 8.65226C9.18522 8.65226 9.09679 8.62618 9.07803 8.59431C9.05927 8.56243 8.94754 8.53635 8.82973 8.53635C8.71192 8.53635 8.60018 8.51027 8.58142 8.4784C8.56183 8.44493 8.26814 8.42044 7.88838 8.42044C7.48598 8.42044 7.22954 8.44304 7.22954 8.4784C7.22954 8.51027 7.10539 8.53635 6.95365 8.53635C6.8019 8.53635 6.67775 8.56243 6.67775 8.59431C6.67775 8.62618 6.61719 8.65226 6.54311 8.65226C6.46904 8.65226 6.39303 8.67834 6.37427 8.71021C6.35551 8.74209 6.29191 8.76817 6.23301 8.76817C6.17411 8.76817 6.12596 8.79425 6.12596 8.82612C6.12596 8.858 6.0763 8.88408 6.0156 8.88408C5.95491 8.88408 5.90525 8.91016 5.90525 8.94203C5.90525 8.97391 5.868 8.99999 5.82248 8.99999C5.77696 8.99999 5.73971 9.02607 5.73971 9.05794C5.73971 9.08982 5.70246 9.1159 5.65694 9.1159C5.61142 9.1159 5.57417 9.14198 5.57417 9.17385C5.57417 9.20573 5.54893 9.23181 5.51817 9.23181C5.46078 9.23181 4.63613 10.073 4.63613 10.1316C4.63613 10.1494 4.58647 10.2199 4.52577 10.2883C4.46508 10.3567 4.41542 10.447 4.41542 10.4887C4.41542 10.5306 4.39059 10.5648 4.36024 10.5648C4.32989 10.5648 4.30506 10.6169 4.30506 10.6807C4.30506 10.7444 4.28023 10.7966 4.24988 10.7966C4.21953 10.7966 4.1947 10.8487 4.1947 10.9125C4.1947 10.9762 4.16987 11.0284 4.13952 11.0284C4.10917 11.0284 4.08434 11.0806 4.08434 11.1443C4.08434 11.2081 4.05951 11.2602 4.02916 11.2602C3.99882 11.2602 3.97398 11.3108 3.97398 11.3727C3.97398 11.4345 3.94915 11.5013 3.91881 11.521C3.88846 11.5407 3.86363 11.619 3.86363 11.6949C3.86363 11.7708 3.8388 11.849 3.80845 11.8688C3.7781 11.8885 3.75327 11.9944 3.75327 12.1041C3.75327 12.2137 3.72844 12.3034 3.69809 12.3034C3.66774 12.3034 3.64291 12.4192 3.64291 12.5607C3.64291 12.7023 3.61808 12.8343 3.58773 12.854C3.51255 12.9028 3.51255 15.6648 3.58773 15.6648C3.61808 15.6648 3.64291 15.8066 3.64291 15.9801C3.64291 16.1535 3.66774 16.3116 3.69809 16.3313C3.72844 16.351 3.75327 16.4553 3.75327 16.5631C3.75327 16.6709 3.7781 16.7752 3.80845 16.7949C3.8388 16.8146 3.86363 16.9205 3.86363 17.0302C3.86363 17.1399 3.88846 17.2296 3.91881 17.2296C3.94915 17.2296 3.97398 17.3078 3.97398 17.4034C3.97398 17.4991 3.99882 17.5773 4.02916 17.5773C4.05951 17.5773 4.08434 17.6555 4.08434 17.7512C4.08434 17.8468 4.10917 17.925 4.13952 17.925C4.16987 17.925 4.1947 17.975 4.1947 18.0362C4.1947 18.0972 4.22574 18.1596 4.26367 18.1748C4.35155 18.2099 4.07027 18.5046 3.94874 18.5046C3.90198 18.5046 3.86363 18.5307 3.86363 18.5625C3.86363 18.5944 3.83011 18.6205 3.789 18.6205C3.74803 18.6205 3.63657 18.6987 3.54124 18.7944C3.44592 18.89 3.35377 18.9682 3.33639 18.9682C3.29197 18.9682 2.70487 19.5896 2.70487 19.6366C2.70487 19.6579 2.63038 19.7482 2.53933 19.8375C2.44829 19.9269 2.3738 20.0417 2.3738 20.0925C2.3738 20.1435 2.34897 20.1853 2.31862 20.1853C2.28827 20.1853 2.26344 20.2244 2.26344 20.2722C2.26344 20.32 2.23861 20.3591 2.20826 20.3591C2.17791 20.3591 2.15308 20.3983 2.15308 20.4461C2.15308 20.4939 2.12825 20.533 2.0979 20.533C2.06755 20.533 2.04272 20.5852 2.04272 20.6489C2.04272 20.7127 2.01789 20.7648 1.98754 20.7648C1.9572 20.7648 1.93237 20.817 1.93237 20.8807C1.93237 20.9445 1.91209 20.9966 1.88712 20.9966C1.86229 20.9966 1.80821 21.127 1.76683 21.2864C1.72544 21.4458 1.67137 21.5762 1.64654 21.5762C1.62157 21.5762 1.60129 21.6544 1.60129 21.7501C1.60129 21.8457 1.57646 21.9239 1.54611 21.9239C1.51576 21.9239 1.49093 22.023 1.49093 22.1441C1.49093 22.2653 1.46845 22.3892 1.44086 22.4194C1.31878 22.5536 1.21076 25.3619 1.32319 25.48C1.35478 25.5132 1.38058 25.6769 1.38058 25.844C1.38058 26.011 1.40541 26.1639 1.43576 26.1836C1.4661 26.2033 1.49093 26.3353 1.49093 26.4769C1.49093 26.6184 1.51576 26.7342 1.54611 26.7342C1.57646 26.7342 1.60129 26.8124 1.60129 26.908C1.60129 27.0037 1.62612 27.0819 1.65647 27.0819C1.68682 27.0819 1.71165 27.1604 1.71165 27.2565C1.71165 27.3526 1.73648 27.483 1.76683 27.5463C1.79718 27.6096 1.84684 27.7133 1.87719 27.7766C1.90753 27.84 1.93237 27.9443 1.93237 28.0085C1.93237 28.0726 1.9572 28.1251 1.98754 28.1251C2.01789 28.1251 2.04272 28.1903 2.04272 28.27C2.04272 28.3497 2.06755 28.4149 2.0979 28.4149C2.12825 28.4149 2.15308 28.4515 2.15308 28.4963C2.15308 28.5928 2.38318 29.0728 2.44277 29.1006C2.46553 29.1113 2.48415 29.17 2.48415 29.231C2.48415 29.2922 2.50898 29.3421 2.53933 29.3421C2.56968 29.3421 2.59451 29.3943 2.59451 29.4581C2.59451 29.5218 2.61934 29.574 2.64969 29.574C2.68004 29.574 2.70487 29.6082 2.70487 29.65C2.70487 29.6918 2.75453 29.782 2.81523 29.8504C2.87592 29.9188 2.92559 30.0131 2.92559 30.0601C2.92559 30.1069 2.9569 30.1797 2.99525 30.2218C3.23914 30.4899 3.26259 30.6047 3.08974 30.685C2.99953 30.727 2.92559 30.781 2.92559 30.8052C2.92559 30.8293 2.87592 30.849 2.81523 30.849C2.75453 30.849 2.70487 30.875 2.70487 30.9069C2.70487 30.9388 2.67231 30.9649 2.63245 30.9649C2.59272 30.9649 2.50678 31.017 2.44167 31.0808C2.37656 31.1445 2.29668 31.1967 2.26427 31.1967C2.23185 31.1967 2.09514 31.3075 1.96064 31.443C1.82601 31.5785 1.62088 31.7806 1.50487 31.8922C1.38885 32.0037 1.23352 32.1863 1.15972 32.2978C1.08592 32.4094 0.99529 32.5334 0.95832 32.5734C0.921488 32.6136 0.875414 32.6983 0.856239 32.7618C0.837064 32.8254 0.798163 32.8774 0.769884 32.8774C0.741605 32.8774 0.718291 32.923 0.718153 32.9788C0.717878 33.0346 0.680632 33.155 0.635385 33.2463C0.59 33.3376 0.552893 33.4484 0.552893 33.4926C0.552893 33.5368 0.528062 33.5728 0.497714 33.5728C0.467365 33.5728 0.442535 33.625 0.442535 33.6888C0.442535 33.7525 0.417705 33.8047 0.387356 33.8047C0.357008 33.8047 0.332177 33.8683 0.332177 33.9461C0.332177 34.0239 0.307347 34.1037 0.276998 34.1234C0.24665 34.1431 0.221819 34.249 0.221819 34.3587C0.221819 34.4684 0.196989 34.5581 0.16664 34.5581C0.136292 34.5581 0.111462 34.6738 0.111462 34.8154C0.111462 34.957 0.0866309 35.0889 0.0562825 35.1087C-0.0187608 35.1573 -0.0187608 37.6297 0.0562825 37.6297C0.0866309 37.6297 0.111462 37.7585 0.111462 37.916C0.111462 38.0735 0.136292 38.2185 0.16664 38.2382C0.196989 38.2579 0.221819 38.3622 0.221819 38.47C0.221819 38.5778 0.24665 38.6821 0.276998 38.7019C0.307347 38.7216 0.332177 38.8144 0.332177 38.9082C0.332177 39.0019 0.357008 39.0786 0.387356 39.0786C0.417705 39.0786 0.442535 39.1568 0.442535 39.2524C0.442535 39.348 0.467365 39.4263 0.497714 39.4263C0.528062 39.4263 0.552893 39.4784 0.552893 39.5422C0.552893 39.6059 0.577723 39.6581 0.608072 39.6581C0.63842 39.6581 0.662975 39.7168 0.662561 39.7885C0.661871 39.9403 1.15062 40.9911 1.22194 40.9911C1.24856 40.9911 1.27022 41.0374 1.27022 41.0942C1.27022 41.1509 1.31988 41.2349 1.38058 41.2808C1.44127 41.3268 1.49093 41.405 1.49093 41.4547C1.49093 41.5044 1.5406 41.5826 1.60129 41.6286C1.66199 41.6745 1.71165 41.7475 1.71165 41.7908C1.71165 41.834 1.81097 41.9696 1.93237 42.0922C2.05376 42.2148 2.15308 42.3407 2.15308 42.3721C2.15308 42.4611 3.25307 43.599 3.33888 43.599C3.50621 43.599 3.81907 44.129 3.69809 44.2076C3.66774 44.2273 3.64291 44.3316 3.64291 44.4394C3.64291 44.5472 3.61808 44.6515 3.58773 44.6712C3.51338 44.7194 3.51338 46.4388 3.58773 46.4388C3.61808 46.4388 3.64291 46.5431 3.64291 46.6706C3.64291 46.7981 3.66774 46.9025 3.69809 46.9025C3.72844 46.9025 3.75327 46.9807 3.75327 47.0763C3.75327 47.172 3.7781 47.2502 3.80845 47.2502C3.8388 47.2502 3.86363 47.3284 3.86363 47.4241C3.86363 47.5197 3.88846 47.5979 3.91881 47.5979C3.94915 47.5979 3.97398 47.6501 3.97398 47.7138C3.97398 47.7776 3.99275 47.8297 4.01565 47.8297C4.03868 47.8297 4.09262 47.9145 4.13566 48.0181C4.1787 48.1217 4.25926 48.2486 4.31471 48.3002C4.37003 48.3518 4.41542 48.4307 4.41542 48.4758C4.41542 48.5207 4.46508 48.5952 4.52577 48.6411C4.58647 48.687 4.63613 48.7586 4.63613 48.8001C4.63613 48.8415 4.76649 49.0172 4.92582 49.1907C5.08515 49.3641 5.24034 49.5336 5.27069 49.5675C5.43954 49.7559 5.69088 49.9741 5.73916 49.9741C5.76978 49.9741 5.79489 49.9958 5.79489 50.0222C5.79489 50.0487 5.86317 50.1074 5.94663 50.1526C6.03009 50.1979 6.14652 50.2805 6.20528 50.3363C6.26419 50.3921 6.34488 50.4377 6.38461 50.4377C6.42448 50.4377 6.45704 50.4638 6.45704 50.4957C6.45704 50.5275 6.5067 50.5536 6.56739 50.5536C6.62809 50.5536 6.67775 50.5774 6.67775 50.6065C6.67775 50.6356 6.77707 50.6769 6.89847 50.6985C7.01986 50.7201 7.11918 50.7614 7.11918 50.7905C7.11918 50.8196 7.19367 50.8434 7.28472 50.8434C7.37576 50.8434 7.45026 50.8695 7.45026 50.9013C7.45026 50.9332 7.51081 50.9593 7.58489 50.9593C7.65897 50.9593 7.73498 50.9854 7.75374 51.0173C7.7725 51.0491 7.89817 51.0752 8.03295 51.0752C8.16772 51.0752 8.27794 51.1013 8.27794 51.1332C8.27794 51.1669 8.46182 51.1911 8.71937 51.1911C9.12397 51.1911 9.1608 51.2008 9.1608 51.307C9.1608 51.3708 9.18563 51.4229 9.21598 51.4229C9.24633 51.4229 9.27116 51.4571 9.27116 51.499C9.27116 51.5407 9.32082 51.631 9.38152 51.6994C9.44221 51.7678 9.49187 51.864 9.49187 51.9131C9.49187 51.9622 9.51671 52.0025 9.54705 52.0025C9.5774 52.0025 9.60223 52.0546 9.60223 52.1184C9.60223 52.1822 9.62706 52.2343 9.65741 52.2343C9.68776 52.2343 9.71259 52.2843 9.71259 52.3454C9.71259 52.4064 9.73121 52.4651 9.75397 52.4758C9.77674 52.4864 9.84447 52.5994 9.90461 52.7269C10.033 52.9995 10.2195 53.2984 10.2782 53.3257C10.3009 53.3365 10.3196 53.3951 10.3196 53.4561C10.3196 53.5173 10.3403 53.5673 10.3654 53.5673C10.3906 53.5673 10.4465 53.639 10.4895 53.7266C10.5327 53.8143 10.6113 53.9366 10.6644 53.9983C10.7175 54.0602 10.761 54.1449 10.761 54.1867C10.761 54.2285 10.7817 54.2627 10.8068 54.2627C10.832 54.2627 10.8878 54.3344 10.9307 54.4221C10.9734 54.5098 11.0522 54.6236 11.1054 54.6752C11.1588 54.7268 11.2024 54.7946 11.2024 54.8261C11.2024 54.8573 11.2769 54.9649 11.368 55.065C11.459 55.1651 11.5335 55.2601 11.5335 55.2764C11.5335 55.2926 11.6328 55.4133 11.7542 55.5447C11.8756 55.6761 11.9749 55.8075 11.9749 55.8369C11.9749 55.8958 12.0311 55.9728 12.2784 56.2535C12.3695 56.3566 12.5805 56.6087 12.7474 56.8136C12.9143 57.0183 13.1484 57.278 13.2676 57.3906C13.3868 57.5031 13.5358 57.6479 13.5987 57.7123C13.6616 57.7767 13.8 57.8935 13.9062 57.9716C14.0124 58.0496 14.2156 58.2381 14.3578 58.3904C14.5001 58.5427 14.6305 58.6673 14.6481 58.6673C14.6655 58.6673 14.7576 58.7455 14.8529 58.8412C14.9482 58.9368 15.0542 59.015 15.0885 59.015C15.1229 59.015 15.1868 59.0672 15.2305 59.1309C15.2742 59.1947 15.3381 59.2468 15.3724 59.2468C15.4068 59.2468 15.5127 59.3251 15.608 59.4207C15.7034 59.5163 15.8065 59.5946 15.8374 59.5946C15.8683 59.5946 15.9715 59.6728 16.0669 59.7684C16.1622 59.8641 16.2736 59.9423 16.3146 59.9423C16.3557 59.9423 16.3892 59.9652 16.3892 59.9932C16.3892 60.0213 16.4637 60.0766 16.5548 60.1162C16.6458 60.1557 16.7203 60.209 16.7203 60.2345C16.7203 60.26 16.7948 60.298 16.8858 60.319C16.9769 60.34 17.0514 60.3812 17.0514 60.4106C17.0514 60.4398 17.0886 60.4639 17.1342 60.4639C17.1797 60.4639 17.2169 60.49 17.2169 60.5219C17.2169 60.5537 17.2553 60.5798 17.302 60.5798C17.3488 60.5798 17.4404 60.632 17.5055 60.6957C17.5706 60.7595 17.6566 60.8116 17.6963 60.8116C17.7362 60.8116 17.7687 60.8377 17.7687 60.8696C17.7687 60.9015 17.8071 60.9275 17.8538 60.9275C17.9006 60.9275 17.9922 60.9797 18.0573 61.0434C18.1224 61.1072 18.2083 61.1594 18.2481 61.1594C18.2879 61.1594 18.3205 61.1854 18.3205 61.2173C18.3205 61.2492 18.3702 61.2753 18.4309 61.2753C18.4916 61.2753 18.5412 61.3013 18.5412 61.3332C18.5412 61.3651 18.5909 61.3912 18.6516 61.3912C18.7123 61.3912 18.7619 61.4173 18.7619 61.4491C18.7619 61.481 18.8095 61.5071 18.8677 61.5071C18.9258 61.5071 18.9817 61.5278 18.9919 61.553C19.0192 61.6214 20.6063 62.4344 20.7124 62.4344C20.7626 62.4344 20.8036 62.4604 20.8036 62.4923C20.8036 62.5242 20.8532 62.5503 20.9139 62.5503C20.9746 62.5503 21.0243 62.574 21.0243 62.6032C21.0243 62.6323 21.1236 62.6736 21.245 62.6952C21.3664 62.7168 21.4657 62.758 21.4657 62.7872C21.4657 62.8163 21.5278 62.84 21.6036 62.84C21.6795 62.84 21.7416 62.8661 21.7416 62.898C21.7416 62.9299 21.7913 62.956 21.8519 62.956C21.9126 62.956 21.9623 62.982 21.9623 63.0139C21.9623 63.0458 22.012 63.0719 22.0727 63.0719C22.1334 63.0719 22.183 63.0979 22.183 63.1298C22.183 63.1617 22.2205 63.1878 22.2665 63.1878C22.3124 63.1878 22.3982 63.2194 22.4571 63.258C22.7708 63.4638 22.6282 63.1575 22.2746 62.8663C22.036 62.6697 21.2996 61.795 20.2242 60.4307C20.1028 60.2767 19.8363 59.9462 19.6318 59.6961C19.4274 59.4461 19.0061 58.8842 18.6954 58.4474C18.3848 58.0105 18.1176 57.64 18.1014 57.6241C17.937 57.4611 16.7153 55.6565 16.3044 54.9695C15.8391 54.1919 15.6719 53.9023 15.6719 53.8747C15.6719 53.8589 15.6228 53.7736 15.5628 53.6851C15.4002 53.4451 15.1154 52.8866 14.6609 51.9156C14.3173 51.1816 14.1366 50.7578 13.7962 49.8871C13.7067 49.6584 13.5633 49.2449 13.4843 48.9888C13.4402 48.8454 13.3832 48.6759 13.3578 48.6121C13.3326 48.5484 13.2813 48.3789 13.2439 48.2354C13.2067 48.092 13.157 47.9094 13.1337 47.8297C13.1104 47.7501 13.0607 47.5675 13.0233 47.4241C12.9859 47.2806 12.936 47.0981 12.9124 47.0184C12.8888 46.9387 12.8393 46.717 12.8022 46.5258C12.7651 46.3345 12.7156 46.0998 12.692 46.0042C12.6684 45.9085 12.6196 45.6347 12.5833 45.3956C12.547 45.1566 12.496 44.8436 12.4699 44.7002C12.4437 44.5567 12.395 44.1655 12.3615 43.8309C12.3279 43.4962 12.2774 43.0398 12.249 42.8166C12.2206 42.5935 12.1807 41.6602 12.1605 40.7424L12.1235 39.0738L11.8269 38.9314C11.6637 38.853 11.5178 38.7888 11.5025 38.7888C11.0802 38.7888 9.54802 37.1088 9.22978 36.2967C9.18605 36.1852 9.11859 36.0156 9.07996 35.92C9.0412 35.8244 8.97981 35.6288 8.94353 35.4854C8.90712 35.3419 8.85318 35.1413 8.82352 35.0394C8.79386 34.9375 8.76903 34.4942 8.76848 34.0542C8.76738 33.2908 8.78117 33.1843 8.99251 32.3148C9.13528 31.7276 9.66569 30.8287 10.2194 30.2351L10.6029 29.8242L10.3836 29.3368C8.73634 25.6761 10.1062 21.3887 13.4923 19.6075C14.2804 19.1929 14.7685 19.0394 15.9478 18.8349L16.3616 18.7632L16.3443 18.5324C16.3346 18.4056 16.3037 18.2105 16.2756 18.0989C16.2474 17.9873 16.2244 17.6613 16.2244 17.3745C16.2249 14.9159 17.4832 12.7507 19.562 11.631C20.0137 11.3877 20.1489 11.1869 19.9801 11.0097C19.9475 10.9754 19.9207 10.9 19.9207 10.8422C19.9207 10.7844 19.8986 10.6918 19.8716 10.6365C19.8445 10.5811 19.7638 10.4054 19.6922 10.246C19.6207 10.0866 19.5434 9.94755 19.5206 9.93697C19.4979 9.92625 19.4793 9.86757 19.4793 9.80658C19.4793 9.74543 19.4544 9.69545 19.4241 9.69545C19.3937 9.69545 19.3689 9.64329 19.3689 9.57954C19.3689 9.51579 19.3441 9.46363 19.3137 9.46363C19.2834 9.46363 19.2585 9.41726 19.2585 9.36047C19.2585 9.30382 19.2089 9.21978 19.1482 9.17385C19.0875 9.12792 19.0378 9.04389 19.0378 8.98724C19.0378 8.93044 19.013 8.88408 18.9826 8.88408C18.9523 8.88408 18.9275 8.84496 18.9275 8.79715C18.9275 8.74933 18.9026 8.71021 18.8723 8.71021C18.8419 8.71021 18.8171 8.67298 18.8171 8.62748C18.8171 8.58185 18.7861 8.50955 18.7481 8.46666C18.7102 8.42377 18.5983 8.27961 18.4994 8.1466C18.4005 8.01345 18.2267 7.81293 18.1132 7.70108C17.5128 7.10979 17.3594 6.97157 17.3031 6.97157C17.2691 6.97157 17.2055 6.91941 17.1617 6.85566C17.118 6.79191 17.038 6.73975 16.9841 6.73975C16.93 6.73975 16.8858 6.71802 16.8858 6.69165C16.8858 6.66513 16.8176 6.60645 16.7341 6.56125C16.6506 6.51604 16.5699 6.46606 16.5548 6.45012C16.4806 6.37188 16.2683 6.27611 16.1692 6.27611C16.1081 6.27611 16.0582 6.25003 16.0582 6.21816C16.0582 6.18628 16.0135 6.1602 15.9588 6.1602C15.9042 6.1602 15.8308 6.13006 15.7958 6.09326C15.7301 6.0243 14.0139 5.97011 13.6303 6.02502ZM36.7541 9.50362C36.7665 9.65415 36.8529 9.7818 36.8567 9.65546C36.8588 9.58562 36.8358 9.51231 36.8054 9.49261C36.7751 9.4729 36.752 9.47783 36.7541 9.50362ZM21.7793 9.89148C21.7586 9.94828 21.7431 10.0383 21.745 10.0914C21.7474 10.1555 21.7666 10.1408 21.8019 10.0481C21.8311 9.97117 21.8466 9.88119 21.8361 9.84816C21.8256 9.81527 21.8001 9.83468 21.7793 9.89148ZM21.4657 10.8545C21.4657 10.9271 21.5242 10.9271 21.6312 10.8545C21.6981 10.8091 21.6903 10.7982 21.5898 10.7975C21.5216 10.797 21.4657 10.8227 21.4657 10.8545ZM41.1094 12.4525C41.1094 12.4706 41.1421 12.5163 41.1821 12.5539C41.222 12.5915 41.3771 12.7394 41.527 12.8827C41.7628 13.1086 41.7553 13.0949 41.4698 12.7813C41.1397 12.4186 41.1094 12.3909 41.1094 12.4525ZM32.7095 14.9653C32.084 15.382 31.263 17.2513 31.1096 18.608L31.0421 19.2042L30.8169 19.3429C30.4935 19.5418 29.6286 20.2122 29.1266 20.6527C27.4969 22.083 26.1291 23.7039 24.8505 25.72C24.2689 26.637 24.09 26.9664 23.3874 28.4149C23.1477 28.9089 22.9266 29.3603 22.8959 29.4179C22.8453 29.5133 22.815 29.5007 22.553 29.2756C21.2393 28.1464 20.635 26.6491 20.635 24.5232C20.635 23.3141 20.4682 22.9318 19.8908 22.8179C19.0518 22.6526 18.6618 23.1465 18.6131 24.4358C18.5463 26.2053 18.9912 27.8572 19.931 29.3301C20.4998 30.2213 21.2459 30.9694 22.1192 31.5239C22.1383 31.536 21.9764 32.1222 21.7932 32.7035C21.4185 33.8925 20.9408 36.5259 20.8051 38.1513C20.7718 38.5497 20.7206 39.0991 20.6913 39.3722C20.5508 40.6807 20.6393 44.2096 20.8656 46.3377C20.9259 46.9038 20.9609 47.391 20.9436 47.4206C20.8372 47.6014 19.6437 46.4793 19.1614 45.745C18.5298 44.7833 17.2721 45.0638 17.2721 46.1664C17.2721 47.1859 19.0822 49.0101 20.8276 49.7495C21.4087 49.9957 21.3214 49.8202 21.6314 51.365C21.6986 51.6997 21.7757 52.0778 21.8028 52.2053C21.83 52.3328 21.8764 52.5676 21.906 52.7269C21.9355 52.8863 21.9834 53.108 22.0124 53.2195C22.0414 53.3311 22.1182 53.631 22.183 53.886C22.2479 54.141 22.3219 54.4279 22.3476 54.5235C22.4555 54.9263 22.6704 55.7499 22.8202 56.3346C22.9112 56.6902 24.0283 60.24 24.1104 60.4349C24.1373 60.4987 24.3128 60.9681 24.5005 61.4781C24.6883 61.9881 24.861 62.4576 24.8844 62.5213C24.908 62.585 24.9533 62.7024 24.9853 62.7821C25.0172 62.8618 25.1259 63.1539 25.2267 63.431L25.41 63.9351L25.9866 63.9053C26.4656 63.8805 26.579 63.8564 26.6558 63.7634C26.7502 63.6491 26.9074 63.6043 26.8456 63.7094C26.8269 63.7412 26.8361 63.7673 26.8662 63.7673C26.8964 63.7673 26.9367 63.7152 26.956 63.6514C26.995 63.5225 27.1247 63.4958 27.1677 63.608C27.19 63.6659 27.1964 63.6659 27.1999 63.608C27.2024 63.5681 27.2524 63.5355 27.3114 63.5355C27.3703 63.5355 27.4338 63.5094 27.4526 63.4776C27.4714 63.4457 27.4481 63.4196 27.4007 63.4196C27.3534 63.4196 27.3147 63.384 27.3147 63.3403C27.3147 63.2596 27.1629 62.8337 26.9767 62.3915C26.9199 62.2564 26.8732 62.126 26.8732 62.1017C26.8732 62.0774 26.6604 61.4968 26.4002 60.8116C25.8215 59.2877 24.8628 56.3178 24.5479 55.0741C24.4873 54.835 24.4171 54.5612 24.3917 54.4656C24.3665 54.3699 24.2835 54.044 24.2075 53.7411C24.1317 53.4383 24.0041 52.935 23.9242 52.6226C23.7278 51.8551 23.1921 49.0797 23.0606 48.1485C23.0022 47.7341 22.9289 47.2125 22.8976 46.9894C22.7246 45.7519 22.5726 43.3303 22.5709 41.7839L22.5693 40.3455L22.7283 40.1032C23.3481 39.1587 24.8237 38.3153 26.4318 37.9867C27.1244 37.8453 27.4028 37.8034 27.6688 37.8011C28.5636 37.7933 29.0362 37.4135 29.0362 36.7024C29.0362 36.2698 28.8768 36.0006 28.5039 35.8035C28.1194 35.6003 27.9769 35.6047 26.3794 35.8713C25.3324 36.0461 24.178 36.4419 23.3505 36.91C22.8099 37.216 22.8168 37.2239 22.9562 36.4706C22.9827 36.3272 23.0199 36.0843 23.039 35.931C23.058 35.7777 23.1055 35.5169 23.1442 35.3515C23.1831 35.186 23.2469 34.8942 23.286 34.703C23.4473 33.9129 23.9848 32.0389 24.1419 31.7183C24.1809 31.6386 24.2761 31.3756 24.3532 31.1341C24.715 30.0011 25.7439 27.9236 26.5491 26.7001L26.8198 26.2888L27.2189 26.2197C28.1077 26.0658 28.3138 26.0399 29.108 25.9815C29.9481 25.9198 31.1911 25.9702 31.9359 26.0962C32.8614 26.2529 33.0555 26.2915 33.4395 26.396C33.6671 26.4579 34.0893 26.5874 34.3776 26.6839C34.9796 26.8854 35.2997 26.9044 35.5451 26.7534C36.257 26.3155 36.2441 25.3534 35.5206 24.9151C34.6132 24.3657 32.1952 23.8963 30.1012 23.8631C29.4032 23.8521 28.8166 23.8415 28.7979 23.8398C28.7674 23.8369 29.3731 23.2043 29.9081 22.6802C30.7232 21.8816 32.118 20.8894 32.8101 20.6159C33.3372 20.4074 34.5616 20.4243 35.1225 20.6478C35.1832 20.672 35.4067 20.7492 35.6191 20.8194C35.8315 20.8899 36.2164 21.0562 36.4744 21.1893C37.3088 21.6198 37.9224 21.4951 38.1896 20.8402C38.5437 19.9726 37.9395 19.388 36.0053 18.7268C35.3552 18.5047 34.345 18.3335 33.674 18.3319C33.3468 18.331 33.2191 18.3103 33.2196 18.2583C33.2217 18.0664 33.4764 17.4297 33.7351 16.9688C34.2261 16.0947 34.3002 15.8192 34.1431 15.4502C33.8792 14.8301 33.2381 14.6132 32.7095 14.9653ZM46.0203 32.3558C45.9141 32.4513 45.8535 32.5295 45.8858 32.5295C45.9181 32.5297 46.0159 32.4514 46.1031 32.3558C46.306 32.1332 46.2678 32.1332 46.0203 32.3558ZM32.3776 43.2664C32.2641 43.3329 32.1805 43.3971 32.1918 43.4091C32.2099 43.4281 32.5997 43.2202 32.6625 43.1581C32.7241 43.097 32.5616 43.1589 32.3776 43.2664ZM31.0685 44.1763C31.0238 44.206 31.0039 44.2478 31.0245 44.2693C31.0449 44.2907 31.1017 44.2661 31.151 44.2145C31.248 44.1125 31.1988 44.0898 31.0685 44.1763ZM27.8793 52.2923C27.8793 52.4038 27.8906 52.4495 27.9045 52.3937C27.9183 52.3379 27.9183 52.2466 27.9045 52.1908C27.8906 52.1351 27.8793 52.1807 27.8793 52.2923Z" fill="#206665"/>
<path fill-rule="evenodd" clip-rule="evenodd" d="M25.3144 6.02613C25.2006 6.03975 25.1075 6.07539 25.1075 6.10538C25.1075 6.13537 25.0454 6.15986 24.9696 6.15986C24.8937 6.15986 24.8316 6.18594 24.8316 6.21781C24.8316 6.24969 24.7556 6.27577 24.6628 6.27577C24.5644 6.27577 24.5083 6.29996 24.5281 6.33372C24.5469 6.3656 24.5132 6.39168 24.4532 6.39168C24.3932 6.39168 24.336 6.41124 24.3258 6.43514C24.3157 6.45905 24.1924 6.53975 24.0518 6.61466C23.9111 6.68942 23.6684 6.8785 23.5124 7.03483C23.3564 7.19102 23.2083 7.31896 23.1831 7.31896C23.158 7.31896 23.078 7.40067 23.0052 7.5005C22.9324 7.60047 22.8275 7.73739 22.7723 7.80476C22.4766 8.16582 22.43 8.23088 22.4142 8.30361C22.4048 8.34722 22.349 8.454 22.2901 8.54093C22.2312 8.62772 22.183 8.74044 22.183 8.7913C22.183 8.84215 22.1582 8.88374 22.1279 8.88374C22.0975 8.88374 22.0727 8.94734 22.0727 9.02515C22.0727 9.10295 22.0478 9.18278 22.0175 9.20249C21.9871 9.22219 21.9623 9.31651 21.9623 9.41214C21.9623 9.50777 21.94 9.57152 21.9127 9.55384C21.8645 9.52254 21.8346 9.69612 21.7637 10.4195C21.7215 10.8497 21.7038 10.8694 21.3131 10.9204C20.6611 11.0058 20.4725 11.0446 20.4725 11.0936C20.4725 11.1212 20.435 11.144 20.389 11.144C20.2898 11.144 20.0836 11.2599 20.0046 11.3601C19.9737 11.3994 19.7894 11.512 19.595 11.6104C17.3769 12.733 15.7322 15.9479 16.2756 18.0986C16.3037 18.2101 16.3346 18.4053 16.3443 18.5321L16.3617 18.7629L15.9478 18.8346C14.7685 19.039 14.2804 19.1926 13.4924 19.6071C10.1062 21.3884 8.73635 25.6757 10.3836 29.3364L10.6029 29.8238L10.2194 30.2347C9.6657 30.8283 9.13529 31.7272 8.99251 32.3145C8.78118 33.1839 8.76738 33.2904 8.76849 34.0538C8.76904 34.4938 8.79387 34.9372 8.82353 35.0391C8.85319 35.1409 8.90712 35.3416 8.94354 35.485C8.97982 35.6285 9.04121 35.8241 9.07997 35.9197C9.1186 36.0153 9.18605 36.1848 9.22978 36.2964C9.54803 37.1085 11.0802 38.7884 11.5025 38.7884C11.5178 38.7884 11.6637 38.8526 11.8269 38.931L12.1235 39.0734L12.1605 40.7421C12.1807 41.6598 12.2206 42.5932 12.249 42.8163C12.2775 43.0394 12.3279 43.4958 12.3615 43.8305C12.395 44.1652 12.4437 44.5564 12.4699 44.6998C12.496 44.8433 12.547 45.1562 12.5833 45.3953C12.6196 45.6344 12.6684 45.9082 12.692 46.0038C12.7156 46.0995 12.7651 46.3342 12.8022 46.5254C12.8393 46.7167 12.8888 46.9384 12.9124 47.018C12.936 47.0977 12.9859 47.2803 13.0233 47.4237C13.0607 47.5672 13.1104 47.7497 13.1337 47.8294C13.157 47.9091 13.2067 48.0917 13.2439 48.2351C13.2813 48.3785 13.3326 48.548 13.3579 48.6118C13.3832 48.6755 13.4402 48.8451 13.4844 48.9885C13.5633 49.2445 13.7067 49.658 13.7962 49.8868C14.1366 50.7574 14.3173 51.1812 14.6609 51.9152C15.1154 52.8863 15.4002 53.4448 15.5628 53.6847C15.6228 53.7733 15.6719 53.8586 15.6719 53.8744C15.6719 53.9019 15.8391 54.1915 16.3044 54.9692C16.7154 55.6562 17.937 57.4608 18.1014 57.6238C18.1176 57.6397 18.3848 58.0102 18.6954 58.447C19.0061 58.8839 19.4274 59.4462 19.6318 59.6965C19.8363 59.947 20.1058 60.2807 20.2309 60.4382C21.3882 61.8943 21.9753 62.6072 22.1378 62.7534C22.5536 63.1276 22.5996 63.1737 22.678 63.2944C22.7227 63.363 22.7848 63.4198 22.8159 63.4206C22.8472 63.4213 22.9348 63.4729 23.0107 63.5352C23.0866 63.5975 23.2045 63.6491 23.2728 63.6498C23.3411 63.6505 23.397 63.6708 23.397 63.6948C23.397 63.7189 23.4901 63.7729 23.6039 63.8148C23.8432 63.9029 25.3833 63.9807 25.3837 63.9046C25.3838 63.8768 25.307 63.6453 25.2129 63.3903C25.1188 63.1353 25.0227 62.8745 24.9992 62.8107C24.9759 62.747 24.9309 62.6296 24.8992 62.5499C24.8676 62.4703 24.6883 61.9878 24.5005 61.4778C24.3128 60.9678 24.1373 60.4983 24.1104 60.4346C24.0283 60.2397 22.9113 56.6898 22.8202 56.3343C22.6704 55.7495 22.4555 54.926 22.3476 54.5232C22.3219 54.4276 22.2479 54.1407 22.183 53.8857C22.1182 53.6307 22.0414 53.3308 22.0124 53.2192C21.9834 53.1076 21.9356 52.886 21.906 52.7266C21.8764 52.5672 21.83 52.3325 21.8028 52.205C21.7757 52.0775 21.6986 51.6993 21.6314 51.3647C21.3214 49.8199 21.4087 49.9953 20.8276 49.7492C19.4071 49.1474 17.9821 47.8921 17.4374 46.7625C16.7834 45.4066 18.3371 44.4895 19.1614 45.7446C19.6437 46.4789 20.8372 47.6011 20.9436 47.4202C20.961 47.3907 20.9259 46.9034 20.8656 46.3374C20.6393 44.2093 20.5508 40.6804 20.6913 39.3719C20.7207 39.0988 20.7718 38.5494 20.8051 38.1509C20.8611 37.4808 20.9339 36.9036 21.0833 35.9487C21.2153 35.104 21.621 33.2496 21.7932 32.7032C21.9764 32.1219 22.1383 31.5357 22.1192 31.5235C20.5594 30.5329 19.3849 28.8824 18.9013 27.0006C18.315 24.7196 18.5583 22.9385 19.4737 22.8096C20.3377 22.6879 20.635 23.1266 20.635 24.5229C20.635 26.6488 21.2393 28.1461 22.553 29.2753C22.815 29.5003 22.8453 29.5129 22.8959 29.4176C22.9266 29.3599 23.1477 28.9086 23.3874 28.4145C24.09 26.9661 24.2689 26.6366 24.8505 25.7196C26.1291 23.7035 27.4969 22.0827 29.1266 20.6523C29.6286 20.2119 30.4935 19.5415 30.8169 19.3426L31.0421 19.2039L31.1096 18.6077C31.263 17.251 32.0841 15.3816 32.7095 14.9649C33.2381 14.6129 33.8792 14.8298 34.1431 15.4499C34.3002 15.8189 34.2261 16.0943 33.7351 16.9684C33.4764 17.4293 33.2217 18.0661 33.2196 18.2579C33.2191 18.3099 33.3468 18.3307 33.674 18.3315C34.345 18.3331 35.3552 18.5044 36.0053 18.7265C37.9395 19.3876 38.5437 19.9722 38.1896 20.8398C37.9224 21.4947 37.3088 21.6195 36.4744 21.189C36.2164 21.0559 35.8315 20.8895 35.6191 20.8191C35.4067 20.7488 35.1832 20.6716 35.1225 20.6474C34.5616 20.424 33.3372 20.407 32.8101 20.6155C32.118 20.8891 30.7232 21.8813 29.9081 22.6799C29.3731 23.2039 28.7674 23.8365 28.7979 23.8394C28.8166 23.8412 29.4032 23.8517 30.1012 23.8628C32.1952 23.8959 34.6132 24.3654 35.5206 24.9148C36.2441 25.3531 36.257 26.3151 35.5451 26.7531C35.2997 26.9041 34.9796 26.8851 34.3776 26.6836C34.0893 26.5871 33.6671 26.4575 33.4395 26.3957C33.0555 26.2912 32.8614 26.2525 31.9359 26.0959C31.1911 25.9698 29.9481 25.9194 29.108 25.9811C28.3138 26.0395 28.1077 26.0655 27.2189 26.2193L26.8198 26.2885L26.5491 26.6998C25.7439 27.9232 24.7151 30.0008 24.3532 31.1338C24.2761 31.3753 24.1809 31.6383 24.1419 31.718C23.9848 32.0386 23.4473 33.9126 23.2861 34.7026C23.2469 34.8939 23.1831 35.1857 23.1442 35.3511C23.1055 35.5166 23.058 35.7774 23.039 35.9307C23.02 36.084 22.9827 36.3268 22.9562 36.4703C22.8168 37.2235 22.8099 37.2157 23.3505 36.9097C24.178 36.4416 25.3324 36.0457 26.3794 35.871C27.977 35.6044 28.1194 35.5999 28.5039 35.8032C28.8768 36.0002 29.0362 36.2694 29.0362 36.7021C29.0362 37.4132 28.5636 37.7929 27.6688 37.8008C27.4028 37.8031 27.1244 37.8449 26.4318 37.9864C24.8238 38.315 23.3481 39.1583 22.7283 40.1029L22.5693 40.3451L22.5709 41.7836C22.5726 43.3299 22.7246 45.7516 22.8976 46.9891C22.9289 47.2122 23.0022 47.7338 23.0606 48.1482C23.1921 49.0793 23.7278 51.8548 23.9242 52.6223C24.0041 52.9347 24.1317 53.438 24.2075 53.7408C24.2836 54.0436 24.3665 54.3696 24.3917 54.4652C24.4171 54.5609 24.4873 54.8347 24.5479 55.0738C24.8628 56.3175 25.8215 59.2874 26.4002 60.8113C26.6604 61.4965 26.8732 62.077 26.8732 62.1014C26.8732 62.1257 26.9199 62.2561 26.9767 62.3911C27.1629 62.8333 27.3147 63.2593 27.3147 63.34C27.3147 63.3859 27.3727 63.4193 27.4526 63.4193C27.5285 63.4193 27.5906 63.3932 27.5906 63.3613C27.5906 63.3294 27.6165 63.3034 27.6481 63.3034C27.6797 63.3034 27.7589 63.2512 27.824 63.1874C27.8891 63.1237 27.975 63.0715 28.0147 63.0715C28.0546 63.0715 28.0872 63.0455 28.0872 63.0136C28.0872 62.9817 28.1259 62.9556 28.1732 62.9556C28.2206 62.9556 28.2439 62.9295 28.2251 62.8977C28.2064 62.8658 28.2305 62.8397 28.2788 62.8397C28.3271 62.8397 28.3804 62.8016 28.3976 62.755C28.4145 62.7084 28.4758 62.6544 28.5337 62.6351C28.5916 62.6159 28.639 62.576 28.639 62.5468C28.639 62.4963 28.747 62.3414 28.9011 62.1709C28.939 62.1289 28.97 62.0666 28.97 62.0326C28.97 61.9984 28.9949 61.9704 29.0252 61.9704C29.0556 61.9704 29.0804 61.9337 29.0804 61.889C29.0804 61.8442 29.1267 61.7073 29.1836 61.5847C29.2403 61.4621 29.3148 61.2687 29.3491 61.155C29.4265 60.8982 29.4322 59.7304 29.3563 59.6812C29.3259 59.6615 29.3011 59.5572 29.3011 59.4494C29.3011 59.3416 29.2763 59.2372 29.2459 59.2175C29.2156 59.1978 29.1907 59.1196 29.1907 59.0437C29.1907 58.9678 29.1659 58.8895 29.1356 58.8698C29.1052 58.8501 29.0804 58.7572 29.0804 58.6635C29.0804 58.5697 29.0556 58.4931 29.0252 58.4931C28.9949 58.4931 28.97 58.4018 28.97 58.2903C28.97 58.1787 28.9452 58.0874 28.9149 58.0874C28.8845 58.0874 28.8593 58.0418 28.8588 57.986C28.8579 57.8675 28.7318 57.4701 28.6768 57.4124C28.6559 57.3905 28.639 57.2742 28.639 57.1539C28.639 57.0337 28.6167 56.9208 28.5896 56.9031C28.5624 56.8856 28.5246 56.7601 28.5056 56.6245C28.4202 56.0183 28.4038 55.9431 28.3573 55.9431C28.3301 55.9431 28.3079 55.8257 28.3079 55.6823C28.3079 55.5389 28.2831 55.4215 28.2527 55.4215C28.2221 55.4215 28.1975 55.2685 28.1975 55.0785C28.1975 54.89 28.1741 54.7271 28.1454 54.7163C28.1168 54.7057 28.0877 54.5471 28.0808 54.3638C28.0739 54.1805 28.0477 54.0306 28.0226 54.0306C27.9974 54.0306 27.9753 53.7893 27.9735 53.4945C27.9717 53.1996 27.9503 52.8308 27.9259 52.6749C27.8734 52.3387 27.9746 49.9158 28.0411 49.9158C28.0665 49.9158 28.0872 49.7984 28.0872 49.655C28.0872 49.5115 28.112 49.3942 28.1423 49.3942C28.1727 49.3942 28.1975 49.2654 28.1975 49.1079C28.1975 48.9504 28.2224 48.8054 28.2527 48.7857C28.2831 48.766 28.3079 48.6861 28.3079 48.6083C28.3079 48.5305 28.3327 48.4669 28.3631 48.4669C28.3934 48.4669 28.4182 48.3887 28.4182 48.293C28.4182 48.1974 28.4431 48.1192 28.4734 48.1192C28.5038 48.1192 28.5286 48.0657 28.5286 48.0005C28.5286 47.9352 28.5783 47.7738 28.639 47.6419C28.6997 47.5099 28.7493 47.3678 28.7493 47.3259C28.7493 47.284 28.7679 47.2497 28.7907 47.2494C28.8402 47.2488 28.97 46.9682 28.97 46.8616C28.97 46.8201 28.9949 46.7862 29.0252 46.7862C29.0556 46.7862 29.0804 46.7633 29.0804 46.7352C29.0804 46.6406 29.4515 46.0363 29.4868 46.0734C29.5061 46.0935 29.5218 46.0666 29.5218 46.0135C29.5218 45.9604 29.5653 45.8681 29.6184 45.8084C29.6715 45.7485 29.777 45.6122 29.8529 45.5053C30.0415 45.2393 31.1096 44.1203 31.1747 44.1203C31.2037 44.1203 31.2895 44.0551 31.3653 43.9754C31.4412 43.8957 31.5245 43.8305 31.5505 43.8305C31.5765 43.8305 31.6506 43.7788 31.7153 43.7155C31.9509 43.4851 33.2567 42.7694 33.3414 42.8243C33.3751 42.8462 33.3857 42.8364 33.3657 42.8025C33.3448 42.7669 33.4322 42.7103 33.5779 42.6651C33.7142 42.6227 33.8258 42.5678 33.8258 42.5429C33.8258 42.518 33.8879 42.4976 33.9637 42.4976C34.0396 42.4976 34.1017 42.4699 34.1017 42.4361C34.1017 42.4024 34.1221 42.388 34.1471 42.4043C34.1719 42.4205 34.2617 42.3958 34.3464 42.3498C34.4312 42.3036 34.5459 42.2657 34.6013 42.2657C34.6568 42.2657 34.7175 42.2397 34.7362 42.2078C34.755 42.1759 34.8434 42.1498 34.9327 42.1498C35.0219 42.1498 35.0949 42.1294 35.0949 42.1045C35.0949 42.0796 35.1583 42.0536 35.2357 42.047C35.3133 42.0401 35.4233 42.0084 35.4805 41.9764C35.5376 41.9442 35.6714 41.918 35.7777 41.918C35.8842 41.918 35.9866 41.8919 36.0053 41.8601C36.0241 41.8282 36.1498 41.8021 36.2845 41.8021C36.4193 41.8021 36.5295 41.776 36.5295 41.7441C36.5295 41.7123 36.6413 41.6862 36.7778 41.6862C36.9144 41.6862 37.0261 41.6621 37.0261 41.6329C37.0261 41.6035 37.2062 41.5652 37.4262 41.5478C37.6462 41.5304 38.0497 41.4868 38.3229 41.4509C39.0202 41.359 42.4833 41.3164 42.629 41.3979C42.6908 41.4325 42.8895 41.4529 43.0704 41.4431L43.3993 41.4254L43.3919 40.4691C43.3841 39.4911 43.343 39.0443 43.2556 38.9875C43.2284 38.9698 43.2062 38.8673 43.2062 38.7595C43.2062 38.6517 43.1814 38.5474 43.151 38.5277C43.1207 38.5079 43.0958 38.4167 43.0958 38.3248C43.0958 38.233 43.071 38.1417 43.0406 38.122C43.0103 38.1023 42.9848 38.042 42.9841 37.9881C42.9833 37.9342 42.8839 37.6818 42.7634 37.4271C42.6427 37.1725 42.544 36.9269 42.544 36.8814C42.544 36.836 42.5276 36.816 42.5075 36.837C42.4875 36.8581 42.4084 36.7777 42.332 36.6583C41.8557 35.9148 40.646 35.0115 40.0057 34.9213C39.8844 34.9042 39.7851 34.8711 39.7851 34.848C39.7851 34.8083 39.58 34.7683 38.9298 34.6815C38.6746 34.6474 38.6553 34.6338 38.6731 34.4998C38.6978 34.3138 38.7235 34.2888 38.8039 34.3733C38.8397 34.411 39.0007 34.4418 39.1616 34.4418C39.3224 34.4418 39.454 34.4679 39.454 34.4998C39.454 34.5364 39.8575 34.5577 40.5543 34.5577C41.2284 34.5577 41.6679 34.5353 41.6888 34.4998C41.7075 34.4679 41.8456 34.4418 41.9956 34.4418C42.1455 34.4418 42.2681 34.4158 42.2681 34.3839C42.2681 34.352 42.3368 34.3259 42.4207 34.3259C42.5046 34.3259 42.709 34.2738 42.8751 34.21C43.0412 34.1463 43.2208 34.0941 43.2743 34.0941C43.3279 34.0941 43.3717 34.068 43.3717 34.0361C43.3717 34.0043 43.4199 33.9782 43.4788 33.9782C43.5377 33.9782 43.6013 33.9521 43.62 33.9202C43.6388 33.8884 43.7024 33.8623 43.7613 33.8623C43.8202 33.8623 43.8683 33.8362 43.8683 33.8043C43.8683 33.7725 43.8928 33.7464 43.9226 33.7464C44.021 33.7464 44.9167 33.2649 44.9167 33.2119C44.9167 33.1833 44.9416 33.1761 44.9719 33.1958C45.0023 33.2155 45.0272 33.2106 45.0274 33.1848C45.0275 33.159 45.1639 33.0466 45.3306 32.935C45.4972 32.8234 45.6336 32.7126 45.6338 32.6887C45.6339 32.6648 45.6596 32.6452 45.6909 32.6452C45.7221 32.6452 45.8462 32.5474 45.9667 32.4279C46.7368 31.6636 47.1791 31.1801 47.1791 31.102C47.1791 31.0816 47.2349 31.0095 47.3032 30.9418C47.4497 30.7966 47.7309 30.3551 47.7309 30.2704C47.7309 30.2378 47.7517 30.2111 47.7772 30.2111C47.8451 30.2111 48.3378 29.2 48.3378 29.0606C48.3378 28.9952 48.3813 28.9153 48.4344 28.8828C48.4875 28.8503 48.5132 28.823 48.4915 28.822C48.4698 28.8209 48.5009 28.7007 48.5605 28.5546C48.6201 28.4086 48.6689 28.1999 48.6689 28.091C48.6689 27.982 48.6937 27.8929 48.7241 27.8929C48.7544 27.8929 48.7793 27.8163 48.7793 27.7225C48.7793 27.6288 48.8041 27.5359 48.8344 27.5162C48.8648 27.4965 48.8896 27.34 48.8896 27.1685C48.8896 26.997 48.9144 26.8405 48.9448 26.8208C48.9789 26.7987 49 26.3083 49 25.5423C49 24.7525 48.9798 24.2997 48.9448 24.2997C48.9144 24.2997 48.8896 24.1563 48.8896 23.981C48.8896 23.8057 48.8648 23.6622 48.8344 23.6622C48.8041 23.6622 48.7793 23.5856 48.7793 23.4918C48.7793 23.3981 48.7544 23.3052 48.7241 23.2855C48.6937 23.2658 48.6689 23.187 48.6689 23.1104C48.6689 22.9771 48.5339 22.5647 48.3629 22.1757C48.3188 22.0751 48.2826 21.9382 48.2826 21.8714C48.2826 21.8045 48.2578 21.7497 48.2275 21.7497C48.1971 21.7497 48.1723 21.7106 48.1723 21.6628C48.1723 21.615 48.1521 21.5759 48.1275 21.5759C48.1028 21.5759 48.0484 21.4846 48.0068 21.373C47.9651 21.2614 47.9136 21.1702 47.8925 21.1702C47.8714 21.1702 47.8398 21.1245 47.8225 21.0687C47.7711 20.9039 47.5172 20.4772 47.3846 20.3332C47.1795 20.11 47.0687 19.955 47.0687 19.8911C47.0687 19.8576 47.0439 19.8465 47.0135 19.8662C46.9832 19.8859 46.9584 19.8799 46.9584 19.853C46.9584 19.826 46.8597 19.6877 46.7392 19.5454C46.6187 19.403 46.5194 19.2671 46.5184 19.2432C46.5176 19.2193 46.4859 19.199 46.448 19.1981C46.41 19.1974 46.2107 19.0287 46.005 18.8234C45.7992 18.6181 45.5447 18.4072 45.4394 18.3547C45.334 18.3021 45.2478 18.2361 45.2478 18.2078C45.2478 18.1796 45.2106 18.1565 45.165 18.1565C45.1195 18.1565 45.0823 18.1368 45.0823 18.1128C45.0823 18.0886 45.0125 18.0364 44.9271 17.9967C44.8417 17.9572 44.7228 17.8791 44.6629 17.8233C44.6029 17.7675 44.5175 17.7137 44.4731 17.7039C44.3841 17.6842 43.983 17.5022 43.7398 17.3712C43.6538 17.325 43.5483 17.2872 43.5053 17.2872C43.449 17.2872 43.4269 17.2124 43.4269 17.0229C43.4269 16.8617 43.4054 16.7727 43.3717 16.7946C43.3378 16.8166 43.3165 16.7191 43.3165 16.5406C43.3165 16.3812 43.2917 16.2347 43.2614 16.215C43.231 16.1953 43.2062 16.091 43.2062 15.9832C43.2062 15.8754 43.1814 15.7711 43.151 15.7514C43.1207 15.7317 43.0958 15.6646 43.0958 15.6023C43.0958 15.54 43.0739 15.4438 43.0471 15.3884C43.0202 15.3331 42.9737 15.2226 42.9437 15.1429C42.8187 14.8112 42.634 14.4474 42.5905 14.4474C42.565 14.4474 42.544 14.3952 42.544 14.3315C42.544 14.2677 42.5239 14.2156 42.4992 14.2156C42.4745 14.2156 42.4206 14.1255 42.3795 14.0154C42.3384 13.9052 42.284 13.8286 42.2588 13.845C42.2337 13.8613 42.213 13.8267 42.213 13.7682C42.213 13.7095 42.1633 13.624 42.1026 13.5781C42.0419 13.5322 41.9923 13.4713 41.9923 13.4429C41.9923 13.3654 40.9727 12.3031 40.8982 12.3031C40.8626 12.3031 40.8335 12.2813 40.8335 12.255C40.8335 12.2285 40.7652 12.1698 40.6818 12.1246C40.5983 12.0792 40.4819 11.9966 40.4231 11.9409C40.3642 11.8851 40.2835 11.8394 40.2438 11.8394C40.2039 11.8394 40.1714 11.8134 40.1714 11.7815C40.1714 11.7496 40.1202 11.7235 40.0577 11.7235C39.9952 11.7235 39.9595 11.6974 39.9782 11.6656C39.997 11.6337 39.9613 11.6076 39.8988 11.6076C39.8363 11.6076 39.7851 11.5815 39.7851 11.5497C39.7851 11.5178 39.723 11.4917 39.6471 11.4917C39.5713 11.4917 39.5092 11.4656 39.5092 11.4338C39.5092 11.4019 39.458 11.3758 39.3955 11.3758C39.333 11.3758 39.2973 11.3497 39.3161 11.3178C39.3359 11.2841 39.2809 11.2599 39.1846 11.2599C39.0936 11.2599 39.0038 11.2338 38.985 11.2019C38.9662 11.1701 38.9027 11.144 38.8437 11.144C38.7848 11.144 38.7367 11.1179 38.7367 11.086C38.7367 11.0541 38.6374 11.0281 38.516 11.0281C38.3946 11.0281 38.2953 11.002 38.2953 10.9701C38.2953 10.9374 38.139 10.9122 37.9366 10.9122C37.7342 10.9122 37.5779 10.8869 37.5779 10.8542C37.5779 10.8216 37.4233 10.7962 37.2244 10.7962H36.871L36.8423 10.2312C36.799 9.38215 36.6445 8.72262 36.4046 8.36374C36.3519 8.28492 36.3088 8.18987 36.3088 8.15249C36.3088 8.11526 36.2343 8.00094 36.1433 7.8985C36.0522 7.79607 35.9778 7.69204 35.9778 7.66726C35.9778 7.58975 35.2957 6.8885 35.1363 6.802C35.0528 6.75679 34.9845 6.69811 34.9845 6.6716C34.9845 6.64523 34.9503 6.6235 34.9085 6.6235C34.8667 6.6235 34.8012 6.58394 34.763 6.53555C34.7002 6.45615 34.5257 6.36067 34.1706 6.21187C34.1024 6.18333 33.9807 6.12726 33.9001 6.08741C33.6916 5.98411 31.3342 5.98411 31.3013 6.08741C31.2887 6.12726 31.2314 6.15986 31.174 6.15986C31.0577 6.15986 30.553 6.39617 30.5243 6.46412C30.5141 6.48803 30.4637 6.50759 30.4123 6.50759C30.3608 6.50759 30.2829 6.55975 30.2391 6.6235C30.1954 6.68725 30.1405 6.73941 30.1172 6.73941C30.0766 6.73941 29.9213 6.86184 29.7679 7.01469C29.6427 7.13959 29.2753 7.01759 29.3957 6.89125C29.4145 6.8714 29.3875 6.85532 29.3356 6.85532C29.2837 6.85532 29.188 6.80316 29.1229 6.73941C29.0578 6.67566 28.9718 6.6235 28.9321 6.6235C28.8922 6.6235 28.8597 6.59742 28.8597 6.56554C28.8597 6.53367 28.8274 6.50759 28.7879 6.50759C28.6864 6.50759 28.4192 6.37125 28.4187 6.31923C28.4184 6.29533 28.3686 6.27577 28.3079 6.27577C28.2472 6.27577 28.1975 6.24969 28.1975 6.21781C28.1975 6.18594 28.1156 6.15986 28.0154 6.15986C27.9153 6.15986 27.8023 6.12726 27.7645 6.08741C27.696 6.01526 25.8001 5.96788 25.3144 6.02613ZM26.9836 63.5931C26.9836 63.625 27.0208 63.6511 27.0664 63.6511C27.1119 63.6511 27.1491 63.625 27.1491 63.5931C27.1491 63.5613 27.1119 63.5352 27.0664 63.5352C27.0208 63.5352 26.9836 63.5613 26.9836 63.5931ZM25.7835 63.9229C25.8366 63.9374 25.9235 63.9374 25.9766 63.9229C26.0297 63.9083 25.9862 63.8964 25.88 63.8964C25.7738 63.8964 25.7303 63.9083 25.7835 63.9229Z" fill="#4CA2A1"/>
</svg>
