<svg width="49" height="58" viewBox="0 0 49 58" fill="none" xmlns="http://www.w3.org/2000/svg">
<path fill-rule="evenodd" clip-rule="evenodd" d="M13.6303 0.0250218C13.5241 0.04009 13.4136 0.0767465 13.3847 0.106448C13.3559 0.136005 13.2876 0.160201 13.233 0.160201C13.1784 0.160201 13.1337 0.186281 13.1337 0.218156C13.1337 0.250031 13.084 0.276111 13.0233 0.276111C12.9626 0.276111 12.913 0.302191 12.913 0.334066C12.913 0.365941 12.8688 0.392021 12.8147 0.392021C12.7608 0.392021 12.6808 0.44418 12.6371 0.507931C12.5933 0.571681 12.5295 0.62384 12.495 0.62384C12.4606 0.62384 12.3661 0.695559 12.2849 0.783216C11.8384 1.2654 11.5485 1.61675 11.4767 1.76294C11.4321 1.85364 11.3789 1.9413 11.3582 1.95767C11.2811 2.01896 10.9817 2.66805 10.9817 2.77411C10.9817 2.83453 10.9569 2.88408 10.9265 2.88408C10.8962 2.88408 10.8713 2.95116 10.8713 3.03317C10.8713 3.26528 10.7312 3.38162 10.5644 3.28774C10.4905 3.2463 10.4299 3.19052 10.4299 3.164C10.4299 3.13763 10.3803 3.1159 10.3196 3.1159C10.2589 3.1159 10.2092 3.08982 10.2092 3.05794C10.2092 3.02607 10.1595 2.99999 10.0988 2.99999C10.0381 2.99999 9.98849 2.97391 9.98849 2.94203C9.98849 2.91016 9.92793 2.88408 9.85385 2.88408C9.77977 2.88408 9.70376 2.858 9.685 2.82612C9.66624 2.79425 9.60265 2.76817 9.54374 2.76817C9.48484 2.76817 9.4367 2.74209 9.4367 2.71021C9.4367 2.67834 9.36372 2.65226 9.27447 2.65226C9.18522 2.65226 9.09679 2.62618 9.07803 2.59431C9.05927 2.56243 8.94754 2.53635 8.82973 2.53635C8.71192 2.53635 8.60018 2.51027 8.58142 2.4784C8.56183 2.44493 8.26814 2.42044 7.88838 2.42044C7.48598 2.42044 7.22954 2.44304 7.22954 2.4784C7.22954 2.51027 7.10539 2.53635 6.95365 2.53635C6.8019 2.53635 6.67775 2.56243 6.67775 2.59431C6.67775 2.62618 6.61719 2.65226 6.54311 2.65226C6.46904 2.65226 6.39303 2.67834 6.37427 2.71021C6.35551 2.74209 6.29191 2.76817 6.23301 2.76817C6.17411 2.76817 6.12596 2.79425 6.12596 2.82612C6.12596 2.858 6.0763 2.88408 6.0156 2.88408C5.95491 2.88408 5.90525 2.91016 5.90525 2.94203C5.90525 2.97391 5.868 2.99999 5.82248 2.99999C5.77696 2.99999 5.73971 3.02607 5.73971 3.05794C5.73971 3.08982 5.70246 3.1159 5.65694 3.1159C5.61142 3.1159 5.57417 3.14198 5.57417 3.17385C5.57417 3.20573 5.54893 3.23181 5.51817 3.23181C5.46078 3.23181 4.63613 4.07302 4.63613 4.13156C4.63613 4.14938 4.58647 4.21994 4.52577 4.28833C4.46508 4.35671 4.41542 4.44698 4.41542 4.4887C4.41542 4.53058 4.39059 4.56477 4.36024 4.56477C4.32989 4.56477 4.30506 4.61693 4.30506 4.68068C4.30506 4.74443 4.28023 4.79659 4.24988 4.79659C4.21953 4.79659 4.1947 4.84875 4.1947 4.9125C4.1947 4.97625 4.16987 5.02841 4.13952 5.02841C4.10917 5.02841 4.08434 5.08057 4.08434 5.14432C4.08434 5.20807 4.05951 5.26023 4.02916 5.26023C3.99882 5.26023 3.97399 5.31079 3.97399 5.37266C3.97399 5.43453 3.94915 5.50132 3.91881 5.52103C3.88846 5.54073 3.86363 5.61897 3.86363 5.69489C3.86363 5.77081 3.8388 5.84905 3.80845 5.86875C3.7781 5.88846 3.75327 5.99437 3.75327 6.10405C3.75327 6.21373 3.72844 6.30342 3.69809 6.30342C3.66774 6.30342 3.64291 6.41918 3.64291 6.56074C3.64291 6.70229 3.61808 6.83428 3.58773 6.85399C3.51255 6.90281 3.51255 9.6648 3.58773 9.6648C3.61808 9.6648 3.64291 9.80664 3.64291 9.98007C3.64291 10.1535 3.66774 10.3116 3.69809 10.3313C3.72844 10.351 3.75327 10.4553 3.75327 10.5631C3.75327 10.6709 3.7781 10.7752 3.80845 10.7949C3.8388 10.8146 3.86363 10.9205 3.86363 11.0302C3.86363 11.1399 3.88846 11.2296 3.91881 11.2296C3.94915 11.2296 3.97399 11.3078 3.97399 11.4034C3.97399 11.4991 3.99882 11.5773 4.02916 11.5773C4.05951 11.5773 4.08434 11.6555 4.08434 11.7512C4.08434 11.8468 4.10917 11.925 4.13952 11.925C4.16987 11.925 4.1947 11.975 4.1947 12.0362C4.1947 12.0972 4.22574 12.1596 4.26367 12.1748C4.35155 12.2099 4.07027 12.5046 3.94874 12.5046C3.90198 12.5046 3.86363 12.5307 3.86363 12.5625C3.86363 12.5944 3.83011 12.6205 3.789 12.6205C3.74803 12.6205 3.63657 12.6987 3.54124 12.7944C3.44592 12.89 3.35377 12.9682 3.33639 12.9682C3.29197 12.9682 2.70487 13.5896 2.70487 13.6366C2.70487 13.6579 2.63038 13.7482 2.53933 13.8375C2.44829 13.9269 2.3738 14.0417 2.3738 14.0925C2.3738 14.1435 2.34897 14.1853 2.31862 14.1853C2.28827 14.1853 2.26344 14.2244 2.26344 14.2722C2.26344 14.32 2.23861 14.3591 2.20826 14.3591C2.17791 14.3591 2.15308 14.3983 2.15308 14.4461C2.15308 14.4939 2.12825 14.533 2.0979 14.533C2.06755 14.533 2.04272 14.5852 2.04272 14.6489C2.04272 14.7127 2.01789 14.7648 1.98754 14.7648C1.9572 14.7648 1.93237 14.817 1.93237 14.8807C1.93237 14.9445 1.91209 14.9966 1.88712 14.9966C1.86229 14.9966 1.80821 15.127 1.76683 15.2864C1.72544 15.4458 1.67137 15.5762 1.64654 15.5762C1.62157 15.5762 1.60129 15.6544 1.60129 15.7501C1.60129 15.8457 1.57646 15.9239 1.54611 15.9239C1.51576 15.9239 1.49093 16.023 1.49093 16.1441C1.49093 16.2653 1.46845 16.3892 1.44086 16.4194C1.31878 16.5536 1.21076 19.362 1.32319 19.48C1.35478 19.5132 1.38058 19.6769 1.38058 19.844C1.38058 20.011 1.40541 20.1639 1.43576 20.1836C1.4661 20.2033 1.49093 20.3353 1.49093 20.4769C1.49093 20.6184 1.51576 20.7342 1.54611 20.7342C1.57646 20.7342 1.60129 20.8124 1.60129 20.908C1.60129 21.0037 1.62612 21.0819 1.65647 21.0819C1.68682 21.0819 1.71165 21.1604 1.71165 21.2565C1.71165 21.3526 1.73648 21.483 1.76683 21.5463C1.79718 21.6096 1.84684 21.7133 1.87719 21.7766C1.90753 21.84 1.93237 21.9443 1.93237 22.0085C1.93237 22.0726 1.9572 22.1251 1.98754 22.1251C2.01789 22.1251 2.04272 22.1903 2.04272 22.27C2.04272 22.3497 2.06755 22.4149 2.0979 22.4149C2.12825 22.4149 2.15308 22.4515 2.15308 22.4963C2.15308 22.5928 2.38318 23.0728 2.44277 23.1006C2.46553 23.1113 2.48415 23.17 2.48415 23.231C2.48415 23.2922 2.50898 23.3421 2.53933 23.3421C2.56968 23.3421 2.59451 23.3943 2.59451 23.4581C2.59451 23.5218 2.61934 23.574 2.64969 23.574C2.68004 23.574 2.70487 23.6082 2.70487 23.65C2.70487 23.6918 2.75453 23.782 2.81523 23.8504C2.87592 23.9188 2.92559 24.0131 2.92559 24.0601C2.92559 24.1069 2.9569 24.1797 2.99525 24.2218C3.23914 24.4899 3.26259 24.6047 3.08974 24.685C2.99953 24.727 2.92559 24.781 2.92559 24.8052C2.92559 24.8293 2.87592 24.849 2.81523 24.849C2.75453 24.849 2.70487 24.875 2.70487 24.9069C2.70487 24.9388 2.67231 24.9649 2.63245 24.9649C2.59272 24.9649 2.50678 25.017 2.44167 25.0808C2.37656 25.1445 2.29668 25.1967 2.26427 25.1967C2.23185 25.1967 2.09514 25.3075 1.96064 25.443C1.82601 25.5785 1.62088 25.7806 1.50487 25.8922C1.38885 26.0037 1.23352 26.1863 1.15972 26.2978C1.08592 26.4094 0.99529 26.5334 0.95832 26.5734C0.921488 26.6136 0.875414 26.6983 0.856239 26.7618C0.837064 26.8254 0.798163 26.8774 0.769884 26.8774C0.741605 26.8774 0.718291 26.923 0.718153 26.9788C0.717878 27.0346 0.680632 27.155 0.635385 27.2463C0.59 27.3376 0.552893 27.4484 0.552893 27.4926C0.552893 27.5368 0.528062 27.5728 0.497714 27.5728C0.467365 27.5728 0.442535 27.625 0.442535 27.6888C0.442535 27.7525 0.417705 27.8047 0.387356 27.8047C0.357008 27.8047 0.332177 27.8683 0.332177 27.9461C0.332177 28.0239 0.307347 28.1037 0.276998 28.1234C0.24665 28.1431 0.221819 28.249 0.221819 28.3587C0.221819 28.4684 0.196989 28.5581 0.16664 28.5581C0.136292 28.5581 0.111462 28.6738 0.111462 28.8154C0.111462 28.957 0.0866309 29.0889 0.0562825 29.1087C-0.0187608 29.1573 -0.0187608 31.6297 0.0562825 31.6297C0.0866309 31.6297 0.111462 31.7585 0.111462 31.916C0.111462 32.0735 0.136292 32.2185 0.16664 32.2382C0.196989 32.2579 0.221819 32.3622 0.221819 32.47C0.221819 32.5778 0.24665 32.6821 0.276998 32.7019C0.307347 32.7216 0.332177 32.8144 0.332177 32.9082C0.332177 33.0019 0.357008 33.0786 0.387356 33.0786C0.417705 33.0786 0.442535 33.1568 0.442535 33.2524C0.442535 33.348 0.467365 33.4263 0.497714 33.4263C0.528062 33.4263 0.552893 33.4784 0.552893 33.5422C0.552893 33.6059 0.577723 33.6581 0.608072 33.6581C0.63842 33.6581 0.662975 33.7168 0.662561 33.7885C0.661871 33.9403 1.15062 34.9911 1.22194 34.9911C1.24856 34.9911 1.27022 35.0374 1.27022 35.0942C1.27022 35.1509 1.31988 35.2349 1.38058 35.2808C1.44127 35.3268 1.49093 35.405 1.49093 35.4547C1.49093 35.5044 1.5406 35.5826 1.60129 35.6286C1.66199 35.6745 1.71165 35.7475 1.71165 35.7908C1.71165 35.834 1.81097 35.9696 1.93237 36.0922C2.05376 36.2148 2.15308 36.3407 2.15308 36.3721C2.15308 36.4611 3.25307 37.599 3.33888 37.599C3.50621 37.599 3.81907 38.129 3.69809 38.2076C3.66774 38.2273 3.64291 38.3316 3.64291 38.4394C3.64291 38.5472 3.61808 38.6515 3.58773 38.6712C3.51338 38.7194 3.51338 40.4388 3.58773 40.4388C3.61808 40.4388 3.64291 40.5431 3.64291 40.6706C3.64291 40.7981 3.66774 40.9025 3.69809 40.9025C3.72844 40.9025 3.75327 40.9807 3.75327 41.0763C3.75327 41.172 3.7781 41.2502 3.80845 41.2502C3.8388 41.2502 3.86363 41.3284 3.86363 41.4241C3.86363 41.5197 3.88846 41.5979 3.91881 41.5979C3.94915 41.5979 3.97399 41.6501 3.97399 41.7138C3.97399 41.7776 3.99275 41.8297 4.01564 41.8297C4.03868 41.8297 4.09262 41.9145 4.13566 42.0181C4.1787 42.1217 4.25926 42.2486 4.31471 42.3002C4.37003 42.3518 4.41542 42.4307 4.41542 42.4758C4.41542 42.5207 4.46508 42.5952 4.52577 42.6411C4.58647 42.687 4.63613 42.7586 4.63613 42.8001C4.63613 42.8415 4.76649 43.0172 4.92582 43.1907C5.08515 43.3641 5.24034 43.5336 5.27069 43.5675C5.43954 43.7559 5.69088 43.9741 5.73916 43.9741C5.76978 43.9741 5.79489 43.9958 5.79489 44.0222C5.79489 44.0487 5.86317 44.1074 5.94663 44.1526C6.03009 44.1979 6.14652 44.2805 6.20528 44.3363C6.26419 44.3921 6.34488 44.4377 6.38461 44.4377C6.42448 44.4377 6.45704 44.4638 6.45704 44.4957C6.45704 44.5275 6.5067 44.5536 6.56739 44.5536C6.62809 44.5536 6.67775 44.5774 6.67775 44.6065C6.67775 44.6356 6.77707 44.6769 6.89847 44.6985C7.01986 44.7201 7.11918 44.7614 7.11918 44.7905C7.11918 44.8196 7.19367 44.8434 7.28472 44.8434C7.37576 44.8434 7.45026 44.8695 7.45026 44.9013C7.45026 44.9332 7.51081 44.9593 7.58489 44.9593C7.65897 44.9593 7.73498 44.9854 7.75374 45.0173C7.7725 45.0491 7.89817 45.0752 8.03295 45.0752C8.16772 45.0752 8.27794 45.1013 8.27794 45.1332C8.27794 45.1669 8.46182 45.1911 8.71937 45.1911C9.12397 45.1911 9.1608 45.2008 9.1608 45.307C9.1608 45.3708 9.18563 45.4229 9.21598 45.4229C9.24633 45.4229 9.27116 45.4571 9.27116 45.499C9.27116 45.5407 9.32082 45.631 9.38152 45.6994C9.44221 45.7678 9.49187 45.864 9.49187 45.9131C9.49187 45.9622 9.51671 46.0025 9.54705 46.0025C9.5774 46.0025 9.60223 46.0546 9.60223 46.1184C9.60223 46.1822 9.62706 46.2343 9.65741 46.2343C9.68776 46.2343 9.71259 46.2843 9.71259 46.3454C9.71259 46.4064 9.73121 46.4651 9.75397 46.4758C9.77674 46.4864 9.84447 46.5994 9.90461 46.7269C10.033 46.9995 10.2195 47.2984 10.2782 47.3257C10.3009 47.3365 10.3196 47.3951 10.3196 47.4561C10.3196 47.5173 10.3403 47.5673 10.3654 47.5673C10.3906 47.5673 10.4465 47.639 10.4895 47.7266C10.5327 47.8143 10.6113 47.9366 10.6644 47.9983C10.7175 48.0602 10.761 48.1449 10.761 48.1867C10.761 48.2285 10.7817 48.2627 10.8068 48.2627C10.832 48.2627 10.8878 48.3344 10.9307 48.4221C10.9734 48.5098 11.0522 48.6236 11.1054 48.6752C11.1588 48.7268 11.2024 48.7946 11.2024 48.8261C11.2024 48.8573 11.2769 48.9649 11.368 49.065C11.459 49.1651 11.5335 49.2601 11.5335 49.2764C11.5335 49.2926 11.6328 49.4133 11.7542 49.5447C11.8756 49.6761 11.9749 49.8075 11.9749 49.8369C11.9749 49.8958 12.0311 49.9728 12.2784 50.2535C12.3695 50.3566 12.5805 50.6087 12.7474 50.8136C12.9143 51.0183 13.1484 51.278 13.2676 51.3906C13.3868 51.5031 13.5358 51.6479 13.5987 51.7123C13.6616 51.7767 13.8 51.8935 13.9062 51.9716C14.0124 52.0496 14.2156 52.2381 14.3578 52.3904C14.5001 52.5427 14.6305 52.6673 14.6481 52.6673C14.6654 52.6673 14.7576 52.7455 14.8529 52.8412C14.9482 52.9368 15.0542 53.015 15.0885 53.015C15.1229 53.015 15.1868 53.0672 15.2305 53.1309C15.2742 53.1947 15.3381 53.2468 15.3724 53.2468C15.4068 53.2468 15.5127 53.3251 15.608 53.4207C15.7034 53.5163 15.8065 53.5946 15.8374 53.5946C15.8683 53.5946 15.9715 53.6728 16.0669 53.7684C16.1622 53.8641 16.2736 53.9423 16.3146 53.9423C16.3557 53.9423 16.3892 53.9652 16.3892 53.9932C16.3892 54.0213 16.4637 54.0766 16.5548 54.1162C16.6458 54.1557 16.7203 54.209 16.7203 54.2345C16.7203 54.26 16.7948 54.298 16.8858 54.319C16.9769 54.34 17.0514 54.3812 17.0514 54.4106C17.0514 54.4398 17.0886 54.4639 17.1342 54.4639C17.1797 54.4639 17.2169 54.49 17.2169 54.5219C17.2169 54.5537 17.2553 54.5798 17.302 54.5798C17.3488 54.5798 17.4404 54.632 17.5055 54.6957C17.5706 54.7595 17.6566 54.8116 17.6963 54.8116C17.7362 54.8116 17.7687 54.8377 17.7687 54.8696C17.7687 54.9015 17.8071 54.9275 17.8538 54.9275C17.9006 54.9275 17.9922 54.9797 18.0573 55.0434C18.1224 55.1072 18.2083 55.1594 18.2481 55.1594C18.2879 55.1594 18.3205 55.1854 18.3205 55.2173C18.3205 55.2492 18.3702 55.2753 18.4309 55.2753C18.4916 55.2753 18.5412 55.3013 18.5412 55.3332C18.5412 55.3651 18.5909 55.3912 18.6516 55.3912C18.7123 55.3912 18.7619 55.4173 18.7619 55.4491C18.7619 55.481 18.8095 55.5071 18.8677 55.5071C18.9258 55.5071 18.9817 55.5278 18.9919 55.553C19.0192 55.6214 20.6063 56.4344 20.7124 56.4344C20.7626 56.4344 20.8036 56.4604 20.8036 56.4923C20.8036 56.5242 20.8532 56.5503 20.9139 56.5503C20.9746 56.5503 21.0243 56.574 21.0243 56.6032C21.0243 56.6323 21.1236 56.6736 21.245 56.6952C21.3664 56.7167 21.4657 56.758 21.4657 56.7872C21.4657 56.8163 21.5278 56.84 21.6036 56.84C21.6795 56.84 21.7416 56.8661 21.7416 56.898C21.7416 56.9299 21.7913 56.956 21.852 56.956C21.9126 56.956 21.9623 56.982 21.9623 57.0139C21.9623 57.0458 22.012 57.0719 22.0727 57.0719C22.1334 57.0719 22.183 57.0979 22.183 57.1298C22.183 57.1617 22.2205 57.1878 22.2665 57.1878C22.3124 57.1878 22.3982 57.2194 22.4571 57.258C22.7708 57.4638 22.6282 57.1575 22.2746 56.8663C22.036 56.6697 21.2996 55.795 20.2242 54.4307C20.1028 54.2767 19.8363 53.9462 19.6318 53.6961C19.4274 53.4461 19.0061 52.8842 18.6954 52.4474C18.3848 52.0105 18.1176 51.64 18.1014 51.6241C17.937 51.4611 16.7153 49.6565 16.3044 48.9695C15.8391 48.1919 15.6719 47.9023 15.6719 47.8747C15.6719 47.8589 15.6228 47.7736 15.5628 47.6851C15.4002 47.4451 15.1154 46.8866 14.6609 45.9156C14.3173 45.1816 14.1366 44.7578 13.7962 43.8871C13.7067 43.6584 13.5633 43.2449 13.4843 42.9888C13.4402 42.8454 13.3832 42.6759 13.3578 42.6121C13.3326 42.5484 13.2813 42.3789 13.2439 42.2354C13.2067 42.092 13.157 41.9094 13.1337 41.8297C13.1104 41.7501 13.0607 41.5675 13.0233 41.4241C12.9859 41.2806 12.936 41.0981 12.9124 41.0184C12.8888 40.9387 12.8393 40.717 12.8022 40.5258C12.7651 40.3345 12.7156 40.0998 12.692 40.0042C12.6684 39.9085 12.6196 39.6347 12.5833 39.3956C12.547 39.1566 12.496 38.8436 12.4699 38.7002C12.4437 38.5567 12.395 38.1655 12.3615 37.8309C12.3279 37.4962 12.2774 37.0398 12.249 36.8166C12.2206 36.5935 12.1807 35.6602 12.1605 34.7424L12.1235 33.0738L11.8269 32.9314C11.6637 32.853 11.5178 32.7888 11.5025 32.7888C11.0802 32.7888 9.54802 31.1088 9.22978 30.2967C9.18605 30.1852 9.11859 30.0156 9.07996 29.92C9.0412 29.8244 8.97981 29.6288 8.94353 29.4854C8.90712 29.3419 8.85318 29.1413 8.82352 29.0394C8.79386 28.9375 8.76903 28.4942 8.76848 28.0542C8.76738 27.2908 8.78117 27.1843 8.99251 26.3148C9.13528 25.7276 9.66569 24.8287 10.2194 24.2351L10.6029 23.8242L10.3836 23.3368C8.73634 19.6761 10.1062 15.3887 13.4923 13.6075C14.2804 13.1929 14.7685 13.0394 15.9478 12.8349L16.3616 12.7632L16.3443 12.5324C16.3346 12.4056 16.3037 12.2105 16.2756 12.0989C16.2474 11.9873 16.2244 11.6613 16.2244 11.3745C16.2249 8.91588 17.4832 6.75068 19.562 5.63099C20.0137 5.38773 20.1489 5.18692 19.9801 5.00972C19.9475 4.97538 19.9207 4.90004 19.9207 4.84223C19.9207 4.78442 19.8986 4.69184 19.8716 4.63649C19.8445 4.58114 19.7638 4.40539 19.6922 4.24602C19.6207 4.08664 19.5434 3.94755 19.5206 3.93697C19.4979 3.92625 19.4793 3.86757 19.4793 3.80658C19.4793 3.74543 19.4544 3.69545 19.4241 3.69545C19.3937 3.69545 19.3689 3.64329 19.3689 3.57954C19.3689 3.51579 19.3441 3.46363 19.3137 3.46363C19.2834 3.46363 19.2585 3.41726 19.2585 3.36047C19.2585 3.30382 19.2089 3.21978 19.1482 3.17385C19.0875 3.12792 19.0378 3.04389 19.0378 2.98724C19.0378 2.93044 19.013 2.88408 18.9826 2.88408C18.9523 2.88408 18.9275 2.84496 18.9275 2.79715C18.9275 2.74933 18.9026 2.71021 18.8723 2.71021C18.8419 2.71021 18.8171 2.67298 18.8171 2.62748C18.8171 2.58185 18.7861 2.50955 18.7481 2.46666C18.7102 2.42377 18.5983 2.27961 18.4994 2.1466C18.4005 2.01345 18.2267 1.81293 18.1132 1.70108C17.5128 1.10979 17.3594 0.971569 17.3031 0.971569C17.2691 0.971569 17.2055 0.91941 17.1617 0.85566C17.118 0.791909 17.038 0.73975 16.9841 0.73975C16.93 0.73975 16.8858 0.718017 16.8858 0.691647C16.8858 0.665133 16.8176 0.606454 16.7341 0.561249C16.6506 0.516044 16.5699 0.466058 16.5548 0.450121C16.4806 0.371882 16.2683 0.276111 16.1692 0.276111C16.1081 0.276111 16.0582 0.250031 16.0582 0.218156C16.0582 0.186281 16.0135 0.160201 15.9588 0.160201C15.9042 0.160201 15.8308 0.130065 15.7958 0.0932636C15.7301 0.0242973 14.0139 -0.0298905 13.6303 0.0250218ZM36.7541 3.50362C36.7665 3.65415 36.8529 3.7818 36.8567 3.65546C36.8588 3.58562 36.8358 3.51231 36.8054 3.49261C36.7751 3.4729 36.752 3.47783 36.7541 3.50362ZM21.7793 3.89148C21.7586 3.94828 21.7431 4.03825 21.745 4.09142C21.7474 4.15546 21.7666 4.14083 21.8019 4.0481C21.8311 3.97117 21.8466 3.88119 21.8361 3.84816C21.8256 3.81527 21.8001 3.83468 21.7793 3.89148ZM21.4657 4.85454C21.4657 4.92713 21.5242 4.92713 21.6312 4.85454C21.6981 4.80905 21.6903 4.79818 21.5898 4.79746C21.5216 4.79702 21.4657 4.82267 21.4657 4.85454ZM41.1094 6.45251C41.1094 6.47062 41.1421 6.51625 41.1821 6.55393C41.222 6.59145 41.3771 6.73938 41.527 6.88267C41.7628 7.10855 41.7553 7.09493 41.4698 6.78125C41.1397 6.4186 41.1094 6.39093 41.1094 6.45251ZM32.7095 8.96528C32.084 9.38198 31.263 11.2513 31.1096 12.608L31.0421 13.2042L30.8169 13.3429C30.4935 13.5418 29.6286 14.2122 29.1266 14.6527C27.4969 16.083 26.1291 17.7039 24.8505 19.72C24.2689 20.637 24.09 20.9664 23.3874 22.4149C23.1477 22.9089 22.9266 23.3603 22.8959 23.4179C22.8453 23.5133 22.815 23.5006 22.553 23.2756C21.2393 22.1464 20.635 20.6491 20.635 18.5232C20.635 17.3141 20.4682 16.9318 19.8908 16.8179C19.0518 16.6526 18.6618 17.1465 18.6131 18.4358C18.5463 20.2053 18.9912 21.8572 19.931 23.3301C20.4998 24.2213 21.2459 24.9694 22.1192 25.5239C22.1383 25.536 21.9764 26.1222 21.7932 26.7035C21.4185 27.8925 20.9408 30.5259 20.8051 32.1513C20.7718 32.5497 20.7206 33.0991 20.6913 33.3722C20.5508 34.6807 20.6393 38.2096 20.8656 40.3377C20.9259 40.9038 20.9609 41.391 20.9436 41.4206C20.8372 41.6014 19.6437 40.4793 19.1614 39.745C18.5298 38.7833 17.2721 39.0638 17.2721 40.1664C17.2721 41.1859 19.0822 43.0101 20.8276 43.7495C21.4087 43.9957 21.3214 43.8202 21.6314 45.365C21.6986 45.6997 21.7757 46.0778 21.8028 46.2053C21.83 46.3328 21.8764 46.5676 21.906 46.7269C21.9355 46.8863 21.9834 47.108 22.0124 47.2195C22.0414 47.3311 22.1182 47.631 22.183 47.886C22.2479 48.141 22.3219 48.4279 22.3476 48.5235C22.4555 48.9263 22.6704 49.7499 22.8202 50.3346C22.9112 50.6902 24.0283 54.24 24.1104 54.4349C24.1373 54.4987 24.3128 54.9681 24.5005 55.4781C24.6883 55.9881 24.861 56.4575 24.8844 56.5213C24.908 56.585 24.9533 56.7024 24.9853 56.7821C25.0172 56.8618 25.1259 57.1539 25.2267 57.431L25.41 57.9351L25.9866 57.9053C26.4656 57.8805 26.579 57.8564 26.6558 57.7634C26.7502 57.6491 26.9074 57.6043 26.8456 57.7094C26.8269 57.7412 26.8361 57.7673 26.8662 57.7673C26.8964 57.7673 26.9367 57.7152 26.956 57.6514C26.995 57.5225 27.1247 57.4958 27.1677 57.608C27.19 57.6659 27.1964 57.6659 27.1999 57.608C27.2024 57.5681 27.2524 57.5355 27.3114 57.5355C27.3703 57.5355 27.4338 57.5094 27.4526 57.4776C27.4714 57.4457 27.4481 57.4196 27.4007 57.4196C27.3534 57.4196 27.3147 57.384 27.3147 57.3403C27.3147 57.2596 27.1629 56.8337 26.9767 56.3915C26.9199 56.2564 26.8732 56.126 26.8732 56.1017C26.8732 56.0774 26.6604 55.4968 26.4002 54.8116C25.8215 53.2877 24.8628 50.3178 24.5479 49.0741C24.4873 48.835 24.4171 48.5612 24.3917 48.4656C24.3665 48.3699 24.2835 48.044 24.2075 47.7411C24.1317 47.4383 24.0041 46.935 23.9242 46.6226C23.7278 45.8551 23.1921 43.0797 23.0606 42.1485C23.0022 41.7341 22.9289 41.2125 22.8976 40.9894C22.7246 39.7519 22.5726 37.3303 22.5709 35.7839L22.5693 34.3455L22.7283 34.1032C23.3481 33.1587 24.8237 32.3153 26.4318 31.9867C27.1244 31.8453 27.4028 31.8034 27.6688 31.8011C28.5636 31.7933 29.0362 31.4135 29.0362 30.7024C29.0362 30.2698 28.8768 30.0006 28.5039 29.8035C28.1194 29.6003 27.9769 29.6047 26.3794 29.8713C25.3324 30.0461 24.178 30.4419 23.3505 30.91C22.8099 31.216 22.8168 31.2239 22.9562 30.4706C22.9827 30.3272 23.0199 30.0843 23.039 29.931C23.058 29.7777 23.1055 29.5169 23.1442 29.3515C23.1831 29.186 23.2469 28.8942 23.286 28.703C23.4473 27.9129 23.9848 26.0389 24.1419 25.7183C24.1809 25.6386 24.2761 25.3756 24.3532 25.1341C24.715 24.0011 25.7439 21.9236 26.5491 20.7001L26.8198 20.2888L27.2189 20.2197C28.1077 20.0658 28.3138 20.0399 29.108 19.9815C29.9481 19.9198 31.1911 19.9702 31.9359 20.0962C32.8614 20.2529 33.0555 20.2915 33.4395 20.396C33.6671 20.4579 34.0893 20.5874 34.3776 20.6839C34.9796 20.8854 35.2997 20.9044 35.5451 20.7534C36.257 20.3155 36.2441 19.3534 35.5206 18.9151C34.6132 18.3657 32.1952 17.8963 30.1012 17.8631C29.4032 17.8521 28.8166 17.8415 28.7979 17.8398C28.7674 17.8369 29.3731 17.2043 29.9081 16.6802C30.7232 15.8816 32.118 14.8894 32.8101 14.6159C33.3372 14.4074 34.5616 14.4243 35.1225 14.6478C35.1832 14.672 35.4066 14.7492 35.6191 14.8194C35.8315 14.8899 36.2164 15.0562 36.4744 15.1893C37.3088 15.6198 37.9224 15.4951 38.1896 14.8402C38.5437 13.9726 37.9395 13.388 36.0053 12.7268C35.3552 12.5047 34.345 12.3335 33.674 12.3319C33.3468 12.331 33.2191 12.3103 33.2196 12.2583C33.2217 12.0664 33.4764 11.4297 33.7351 10.9688C34.2261 10.0947 34.3002 9.81925 34.1431 9.45022C33.8792 8.8301 33.2381 8.61321 32.7095 8.96528ZM46.0203 26.3558C45.9141 26.4513 45.8535 26.5295 45.8858 26.5295C45.9181 26.5297 46.0159 26.4514 46.1031 26.3558C46.306 26.1332 46.2678 26.1332 46.0203 26.3558ZM32.3776 37.2664C32.2641 37.3329 32.1805 37.3971 32.1918 37.4091C32.2099 37.4281 32.5997 37.2202 32.6625 37.1581C32.7241 37.097 32.5616 37.1589 32.3776 37.2664ZM31.0685 38.1763C31.0238 38.206 31.0039 38.2478 31.0245 38.2693C31.0449 38.2907 31.1017 38.2661 31.151 38.2145C31.248 38.1125 31.1988 38.0898 31.0685 38.1763ZM27.8793 46.2923C27.8793 46.4038 27.8906 46.4495 27.9045 46.3937C27.9183 46.3379 27.9183 46.2466 27.9045 46.1908C27.8906 46.1351 27.8793 46.1807 27.8793 46.2923Z" fill="#206665"/>
<path fill-rule="evenodd" clip-rule="evenodd" d="M25.3144 0.0261276C25.2006 0.039747 25.1075 0.0753892 25.1075 0.105381C25.1075 0.135373 25.0454 0.159858 24.9696 0.159858C24.8937 0.159858 24.8316 0.185938 24.8316 0.217813C24.8316 0.249688 24.7556 0.275768 24.6628 0.275768C24.5644 0.275768 24.5083 0.299964 24.5281 0.333723C24.5469 0.365598 24.5132 0.391678 24.4532 0.391678C24.3932 0.391678 24.336 0.411238 24.3258 0.435144C24.3157 0.45905 24.1924 0.539753 24.0518 0.614659C23.9111 0.689421 23.6684 0.878499 23.5124 1.03483C23.3564 1.19102 23.2083 1.31896 23.1831 1.31896C23.158 1.31896 23.078 1.40067 23.0052 1.5005C22.9324 1.60047 22.8275 1.73739 22.7723 1.80476C22.4766 2.16582 22.43 2.23088 22.4142 2.30361C22.4048 2.34722 22.349 2.454 22.2901 2.54093C22.2312 2.62772 22.183 2.74044 22.183 2.7913C22.183 2.84215 22.1582 2.88374 22.1279 2.88374C22.0975 2.88374 22.0727 2.94734 22.0727 3.02515C22.0727 3.10295 22.0478 3.18278 22.0175 3.20249C21.9871 3.22219 21.9623 3.31651 21.9623 3.41214C21.9623 3.50777 21.94 3.57152 21.9127 3.55384C21.8645 3.52254 21.8346 3.69612 21.7637 4.41954C21.7215 4.84971 21.7038 4.86942 21.3131 4.92042C20.6611 5.00575 20.4725 5.04458 20.4725 5.09356C20.4725 5.12123 20.435 5.14398 20.389 5.14398C20.2898 5.14398 20.0836 5.25989 20.0046 5.36015C19.9737 5.39941 19.7894 5.51199 19.595 5.61037C17.3769 6.73295 15.7322 9.94786 16.2756 12.0986C16.3037 12.2101 16.3346 12.4053 16.3443 12.5321L16.3617 12.7629L15.9478 12.8346C14.7685 13.039 14.2804 13.1926 13.4924 13.6071C10.1062 15.3884 8.73635 19.6757 10.3836 23.3364L10.6029 23.8238L10.2194 24.2347C9.6657 24.8283 9.13529 25.7272 8.99251 26.3145C8.78118 27.1839 8.76738 27.2904 8.76849 28.0538C8.76904 28.4938 8.79387 28.9372 8.82353 29.0391C8.85319 29.1409 8.90712 29.3416 8.94354 29.485C8.97982 29.6285 9.04121 29.8241 9.07997 29.9197C9.1186 30.0153 9.18605 30.1848 9.22978 30.2964C9.54803 31.1085 11.0802 32.7884 11.5025 32.7884C11.5178 32.7884 11.6637 32.8526 11.8269 32.931L12.1235 33.0734L12.1605 34.7421C12.1807 35.6598 12.2206 36.5932 12.249 36.8163C12.2775 37.0394 12.3279 37.4958 12.3615 37.8305C12.395 38.1652 12.4437 38.5564 12.4699 38.6998C12.496 38.8433 12.547 39.1562 12.5833 39.3953C12.6196 39.6344 12.6684 39.9082 12.692 40.0038C12.7156 40.0995 12.7651 40.3342 12.8022 40.5254C12.8393 40.7167 12.8888 40.9384 12.9124 41.018C12.936 41.0977 12.9859 41.2803 13.0233 41.4237C13.0607 41.5672 13.1104 41.7497 13.1337 41.8294C13.157 41.9091 13.2067 42.0917 13.2439 42.2351C13.2813 42.3785 13.3326 42.548 13.3579 42.6118C13.3832 42.6755 13.4402 42.8451 13.4844 42.9885C13.5633 43.2445 13.7067 43.658 13.7962 43.8868C14.1366 44.7574 14.3173 45.1812 14.6609 45.9152C15.1154 46.8863 15.4002 47.4448 15.5628 47.6847C15.6228 47.7733 15.6719 47.8586 15.6719 47.8744C15.6719 47.9019 15.8391 48.1915 16.3044 48.9692C16.7154 49.6562 17.937 51.4608 18.1014 51.6238C18.1176 51.6397 18.3848 52.0102 18.6954 52.447C19.0061 52.8839 19.4274 53.4462 19.6318 53.6965C19.8363 53.947 20.1058 54.2807 20.2309 54.4382C21.3882 55.8943 21.9753 56.6072 22.1378 56.7534C22.5536 57.1276 22.5996 57.1737 22.678 57.2944C22.7227 57.363 22.7848 57.4198 22.8159 57.4206C22.8472 57.4213 22.9348 57.4729 23.0107 57.5352C23.0866 57.5975 23.2045 57.6491 23.2728 57.6498C23.3411 57.6505 23.397 57.6708 23.397 57.6948C23.397 57.7189 23.4901 57.7729 23.6039 57.8148C23.8432 57.9029 25.3833 57.9807 25.3837 57.9046C25.3838 57.8768 25.307 57.6453 25.2129 57.3903C25.1188 57.1353 25.0227 56.8745 24.9992 56.8107C24.9759 56.747 24.9309 56.6296 24.8992 56.5499C24.8676 56.4703 24.6883 55.9878 24.5005 55.4778C24.3128 54.9678 24.1373 54.4983 24.1104 54.4346C24.0283 54.2397 22.9113 50.6898 22.8202 50.3343C22.6704 49.7495 22.4555 48.926 22.3476 48.5232C22.3219 48.4276 22.2479 48.1407 22.183 47.8857C22.1182 47.6307 22.0414 47.3308 22.0124 47.2192C21.9834 47.1076 21.9356 46.886 21.906 46.7266C21.8764 46.5672 21.83 46.3325 21.8028 46.205C21.7757 46.0775 21.6986 45.6993 21.6314 45.3647C21.3214 43.8199 21.4087 43.9953 20.8276 43.7492C19.4071 43.1474 17.9821 41.8921 17.4374 40.7625C16.7834 39.4066 18.3371 38.4895 19.1614 39.7446C19.6437 40.4789 20.8372 41.6011 20.9436 41.4202C20.961 41.3907 20.9259 40.9034 20.8656 40.3374C20.6393 38.2093 20.5508 34.6804 20.6913 33.3719C20.7207 33.0988 20.7718 32.5494 20.8051 32.1509C20.8611 31.4808 20.9339 30.9036 21.0833 29.9487C21.2153 29.104 21.621 27.2496 21.7932 26.7032C21.9764 26.1219 22.1383 25.5357 22.1192 25.5235C20.5594 24.5329 19.3849 22.8824 18.9013 21.0006C18.315 18.7196 18.5583 16.9385 19.4737 16.8096C20.3377 16.6879 20.635 17.1266 20.635 18.5229C20.635 20.6488 21.2393 22.1461 22.553 23.2753C22.815 23.5003 22.8453 23.5129 22.8959 23.4176C22.9266 23.3599 23.1477 22.9086 23.3874 22.4145C24.09 20.9661 24.2689 20.6366 24.8505 19.7196C26.1291 17.7035 27.4969 16.0827 29.1266 14.6523C29.6286 14.2119 30.4935 13.5415 30.8169 13.3426L31.0421 13.2039L31.1096 12.6077C31.263 11.251 32.0841 9.38164 32.7095 8.96494C33.2381 8.61287 33.8792 8.82976 34.1431 9.44988C34.3002 9.81891 34.2261 10.0943 33.7351 10.9684C33.4764 11.4293 33.2217 12.0661 33.2196 12.2579C33.2191 12.31 33.3468 12.3307 33.674 12.3315C34.345 12.3331 35.3552 12.5044 36.0053 12.7265C37.9395 13.3876 38.5437 13.9722 38.1896 14.8398C37.9224 15.4947 37.3088 15.6195 36.4744 15.189C36.2164 15.0559 35.8315 14.8895 35.6191 14.8191C35.4067 14.7488 35.1832 14.6716 35.1225 14.6474C34.5616 14.424 33.3372 14.407 32.8101 14.6155C32.118 14.8891 30.7232 15.8813 29.9081 16.6799C29.3731 17.2039 28.7674 17.8365 28.7979 17.8394C28.8166 17.8412 29.4032 17.8517 30.1012 17.8628C32.1952 17.8959 34.6132 18.3654 35.5206 18.9148C36.2441 19.3531 36.257 20.3151 35.5451 20.7531C35.2997 20.9041 34.9796 20.8851 34.3776 20.6836C34.0893 20.5871 33.6671 20.4575 33.4395 20.3957C33.0555 20.2912 32.8614 20.2525 31.9359 20.0959C31.1911 19.9698 29.9481 19.9194 29.108 19.9811C28.3138 20.0395 28.1077 20.0655 27.2189 20.2193L26.8198 20.2885L26.5491 20.6998C25.7439 21.9232 24.7151 24.0008 24.3532 25.1338C24.2761 25.3753 24.1809 25.6383 24.1419 25.718C23.9848 26.0386 23.4473 27.9126 23.2861 28.7026C23.2469 28.8939 23.1831 29.1857 23.1442 29.3511C23.1055 29.5166 23.058 29.7774 23.039 29.9307C23.02 30.084 22.9827 30.3268 22.9562 30.4703C22.8168 31.2235 22.8099 31.2157 23.3505 30.9097C24.178 30.4416 25.3324 30.0457 26.3794 29.871C27.977 29.6044 28.1194 29.5999 28.5039 29.8032C28.8768 30.0002 29.0362 30.2694 29.0362 30.7021C29.0362 31.4132 28.5636 31.7929 27.6688 31.8008C27.4028 31.8031 27.1244 31.8449 26.4318 31.9864C24.8238 32.315 23.3481 33.1583 22.7283 34.1029L22.5693 34.3451L22.5709 35.7836C22.5726 37.3299 22.7246 39.7516 22.8976 40.9891C22.9289 41.2122 23.0022 41.7338 23.0606 42.1482C23.1921 43.0793 23.7278 45.8548 23.9242 46.6223C24.0041 46.9347 24.1317 47.438 24.2075 47.7408C24.2836 48.0436 24.3665 48.3696 24.3917 48.4652C24.4171 48.5609 24.4873 48.8347 24.5479 49.0738C24.8628 50.3175 25.8215 53.2874 26.4002 54.8113C26.6604 55.4965 26.8732 56.077 26.8732 56.1014C26.8732 56.1257 26.9199 56.2561 26.9767 56.3911C27.1629 56.8333 27.3147 57.2593 27.3147 57.34C27.3147 57.3859 27.3727 57.4193 27.4526 57.4193C27.5285 57.4193 27.5906 57.3932 27.5906 57.3613C27.5906 57.3294 27.6165 57.3034 27.6481 57.3034C27.6797 57.3034 27.7589 57.2512 27.824 57.1874C27.8891 57.1237 27.975 57.0715 28.0147 57.0715C28.0546 57.0715 28.0872 57.0455 28.0872 57.0136C28.0872 56.9817 28.1259 56.9556 28.1732 56.9556C28.2206 56.9556 28.2439 56.9295 28.2251 56.8977C28.2064 56.8658 28.2305 56.8397 28.2788 56.8397C28.3271 56.8397 28.3804 56.8016 28.3976 56.755C28.4145 56.7084 28.4758 56.6544 28.5337 56.6351C28.5916 56.6159 28.639 56.576 28.639 56.5468C28.639 56.4963 28.747 56.3414 28.9011 56.1709C28.939 56.1289 28.97 56.0666 28.97 56.0326C28.97 55.9984 28.9949 55.9704 29.0252 55.9704C29.0556 55.9704 29.0804 55.9337 29.0804 55.889C29.0804 55.8442 29.1267 55.7073 29.1836 55.5847C29.2403 55.4621 29.3148 55.2687 29.3491 55.155C29.4265 54.8982 29.4322 53.7304 29.3563 53.6812C29.3259 53.6615 29.3011 53.5572 29.3011 53.4494C29.3011 53.3416 29.2763 53.2372 29.2459 53.2175C29.2156 53.1978 29.1907 53.1196 29.1907 53.0437C29.1907 52.9678 29.1659 52.8895 29.1356 52.8698C29.1052 52.8501 29.0804 52.7572 29.0804 52.6635C29.0804 52.5697 29.0556 52.4931 29.0252 52.4931C28.9949 52.4931 28.97 52.4018 28.97 52.2903C28.97 52.1787 28.9452 52.0874 28.9149 52.0874C28.8845 52.0874 28.8593 52.0418 28.8588 51.986C28.8579 51.8675 28.7318 51.4701 28.6768 51.4124C28.6559 51.3905 28.639 51.2742 28.639 51.1539C28.639 51.0337 28.6167 50.9208 28.5896 50.9031C28.5624 50.8856 28.5246 50.7601 28.5056 50.6245C28.4202 50.0183 28.4038 49.9431 28.3573 49.9431C28.3301 49.9431 28.3079 49.8257 28.3079 49.6823C28.3079 49.5389 28.2831 49.4215 28.2527 49.4215C28.2221 49.4215 28.1975 49.2685 28.1975 49.0785C28.1975 48.89 28.1741 48.727 28.1454 48.7163C28.1168 48.7058 28.0877 48.5471 28.0808 48.3638C28.0739 48.1805 28.0477 48.0306 28.0226 48.0306C27.9974 48.0306 27.9753 47.7893 27.9735 47.4945C27.9717 47.1996 27.9503 46.8308 27.9259 46.6749C27.8734 46.3387 27.9746 43.9158 28.0411 43.9158C28.0665 43.9158 28.0872 43.7984 28.0872 43.655C28.0872 43.5115 28.112 43.3942 28.1423 43.3942C28.1727 43.3942 28.1975 43.2654 28.1975 43.1079C28.1975 42.9504 28.2224 42.8054 28.2527 42.7857C28.2831 42.766 28.3079 42.6861 28.3079 42.6083C28.3079 42.5305 28.3327 42.4669 28.3631 42.4669C28.3934 42.4669 28.4182 42.3887 28.4182 42.293C28.4182 42.1974 28.4431 42.1192 28.4734 42.1192C28.5038 42.1192 28.5286 42.0657 28.5286 42.0005C28.5286 41.9352 28.5783 41.7738 28.639 41.6419C28.6997 41.5099 28.7493 41.3678 28.7493 41.3259C28.7493 41.2841 28.7679 41.2497 28.7907 41.2494C28.8402 41.2488 28.97 40.9682 28.97 40.8616C28.97 40.8201 28.9949 40.7862 29.0252 40.7862C29.0556 40.7862 29.0804 40.7633 29.0804 40.7352C29.0804 40.6406 29.4515 40.0363 29.4868 40.0734C29.5061 40.0935 29.5218 40.0666 29.5218 40.0135C29.5218 39.9604 29.5653 39.8681 29.6184 39.8084C29.6715 39.7485 29.777 39.6122 29.8529 39.5053C30.0415 39.2393 31.1096 38.1203 31.1747 38.1203C31.2037 38.1203 31.2895 38.0551 31.3653 37.9754C31.4412 37.8957 31.5245 37.8305 31.5505 37.8305C31.5765 37.8305 31.6506 37.7788 31.7153 37.7155C31.9509 37.4851 33.2567 36.7694 33.3414 36.8243C33.3751 36.8462 33.3857 36.8365 33.3657 36.8025C33.3448 36.7669 33.4322 36.7103 33.5779 36.6651C33.7142 36.6227 33.8258 36.5678 33.8258 36.5429C33.8258 36.518 33.8879 36.4976 33.9637 36.4976C34.0396 36.4976 34.1017 36.4699 34.1017 36.4361C34.1017 36.4024 34.1221 36.388 34.1471 36.4043C34.1719 36.4205 34.2617 36.3958 34.3464 36.3498C34.4312 36.3036 34.5459 36.2657 34.6013 36.2657C34.6568 36.2657 34.7175 36.2397 34.7362 36.2078C34.755 36.1759 34.8434 36.1498 34.9327 36.1498C35.0219 36.1498 35.0949 36.1294 35.0949 36.1045C35.0949 36.0796 35.1583 36.0536 35.2357 36.047C35.3133 36.0402 35.4233 36.0084 35.4805 35.9764C35.5376 35.9442 35.6714 35.918 35.7777 35.918C35.8842 35.918 35.9866 35.8919 36.0053 35.8601C36.0241 35.8282 36.1498 35.8021 36.2845 35.8021C36.4193 35.8021 36.5295 35.776 36.5295 35.7441C36.5295 35.7123 36.6413 35.6862 36.7778 35.6862C36.9144 35.6862 37.0262 35.6621 37.0262 35.6329C37.0262 35.6035 37.2062 35.5652 37.4262 35.5478C37.6462 35.5304 38.0497 35.4868 38.3229 35.4509C39.0202 35.359 42.4833 35.3164 42.629 35.3979C42.6908 35.4325 42.8895 35.4529 43.0704 35.4431L43.3993 35.4254L43.3919 34.4691C43.3841 33.4912 43.343 33.0443 43.2556 32.9875C43.2284 32.9698 43.2062 32.8673 43.2062 32.7595C43.2062 32.6517 43.1814 32.5474 43.151 32.5277C43.1207 32.5079 43.0958 32.4167 43.0958 32.3248C43.0958 32.233 43.071 32.1417 43.0407 32.122C43.0103 32.1023 42.9848 32.042 42.9841 31.9881C42.9833 31.9342 42.8839 31.6818 42.7634 31.4271C42.6427 31.1725 42.544 30.9269 42.544 30.8814C42.544 30.836 42.5276 30.816 42.5075 30.837C42.4875 30.8581 42.4084 30.7777 42.332 30.6583C41.8557 29.9148 40.646 29.0115 40.0057 28.9213C39.8844 28.9042 39.7851 28.8711 39.7851 28.848C39.7851 28.8083 39.58 28.7683 38.9298 28.6815C38.6746 28.6474 38.6553 28.6338 38.6731 28.4998C38.6978 28.3138 38.7235 28.2888 38.8039 28.3733C38.8397 28.411 39.0007 28.4418 39.1616 28.4418C39.3224 28.4418 39.454 28.4679 39.454 28.4998C39.454 28.5364 39.8575 28.5577 40.5543 28.5577C41.2284 28.5577 41.6679 28.5353 41.6888 28.4998C41.7075 28.4679 41.8456 28.4418 41.9956 28.4418C42.1455 28.4418 42.2681 28.4158 42.2681 28.3839C42.2681 28.352 42.3368 28.3259 42.4207 28.3259C42.5046 28.3259 42.709 28.2738 42.8751 28.21C43.0412 28.1463 43.2208 28.0941 43.2743 28.0941C43.3279 28.0941 43.3717 28.068 43.3717 28.0362C43.3717 28.0043 43.4199 27.9782 43.4788 27.9782C43.5377 27.9782 43.6013 27.9521 43.62 27.9202C43.6388 27.8884 43.7024 27.8623 43.7613 27.8623C43.8202 27.8623 43.8683 27.8362 43.8683 27.8043C43.8683 27.7725 43.8928 27.7464 43.9225 27.7464C44.021 27.7464 44.9167 27.2649 44.9167 27.2119C44.9167 27.1833 44.9416 27.1761 44.9719 27.1958C45.0023 27.2155 45.0272 27.2106 45.0274 27.1848C45.0275 27.159 45.1639 27.0466 45.3306 26.935C45.4972 26.8234 45.6336 26.7126 45.6338 26.6887C45.6339 26.6648 45.6596 26.6452 45.6909 26.6452C45.7221 26.6452 45.8462 26.5474 45.9667 26.4279C46.7368 25.6636 47.1791 25.1801 47.1791 25.102C47.1791 25.0816 47.2349 25.0095 47.3032 24.9418C47.4497 24.7966 47.7309 24.3551 47.7309 24.2704C47.7309 24.2378 47.7517 24.2111 47.7772 24.2111C47.8451 24.2111 48.3378 23.2 48.3378 23.0606C48.3378 22.9952 48.3813 22.9153 48.4344 22.8828C48.4875 22.8503 48.5132 22.823 48.4915 22.822C48.4698 22.8209 48.5009 22.7007 48.5605 22.5546C48.6201 22.4086 48.6689 22.1999 48.6689 22.091C48.6689 21.982 48.6937 21.8929 48.7241 21.8929C48.7544 21.8929 48.7793 21.8163 48.7793 21.7225C48.7793 21.6288 48.8041 21.5359 48.8344 21.5162C48.8648 21.4965 48.8896 21.34 48.8896 21.1685C48.8896 20.997 48.9144 20.8405 48.9448 20.8208C48.9789 20.7987 49 20.3083 49 19.5423C49 18.7525 48.9798 18.2997 48.9448 18.2997C48.9144 18.2997 48.8896 18.1563 48.8896 17.981C48.8896 17.8057 48.8648 17.6622 48.8344 17.6622C48.8041 17.6622 48.7793 17.5856 48.7793 17.4918C48.7793 17.3981 48.7544 17.3052 48.7241 17.2855C48.6937 17.2658 48.6689 17.187 48.6689 17.1104C48.6689 16.9771 48.5339 16.5647 48.3629 16.1757C48.3188 16.0751 48.2826 15.9382 48.2826 15.8714C48.2826 15.8045 48.2578 15.7497 48.2275 15.7497C48.1971 15.7497 48.1723 15.7106 48.1723 15.6628C48.1723 15.615 48.1522 15.5759 48.1275 15.5759C48.1028 15.5759 48.0484 15.4846 48.0068 15.373C47.9651 15.2614 47.9136 15.1702 47.8925 15.1702C47.8714 15.1702 47.8398 15.1245 47.8225 15.0687C47.7711 14.9039 47.5172 14.4772 47.3846 14.3332C47.1795 14.11 47.0687 13.955 47.0687 13.8911C47.0687 13.8576 47.0439 13.8465 47.0135 13.8662C46.9832 13.8859 46.9584 13.8799 46.9584 13.853C46.9584 13.826 46.8597 13.6877 46.7392 13.5454C46.6187 13.403 46.5194 13.2671 46.5184 13.2432C46.5176 13.2193 46.4859 13.199 46.448 13.1981C46.41 13.1974 46.2107 13.0287 46.005 12.8234C45.7992 12.6181 45.5447 12.4072 45.4394 12.3547C45.334 12.3021 45.2478 12.2361 45.2478 12.2078C45.2478 12.1796 45.2106 12.1565 45.165 12.1565C45.1195 12.1565 45.0823 12.1368 45.0823 12.1128C45.0823 12.0886 45.0125 12.0364 44.9271 11.9967C44.8417 11.9572 44.7228 11.8791 44.6629 11.8233C44.6029 11.7675 44.5175 11.7137 44.4731 11.7039C44.3841 11.6842 43.983 11.5022 43.7398 11.3712C43.6538 11.325 43.5483 11.2872 43.5053 11.2872C43.449 11.2872 43.4269 11.2124 43.4269 11.0229C43.4269 10.8617 43.4054 10.7727 43.3717 10.7946C43.3378 10.8166 43.3165 10.7191 43.3165 10.5406C43.3165 10.3812 43.2917 10.2347 43.2614 10.215C43.231 10.1953 43.2062 10.091 43.2062 9.98321C43.2062 9.87541 43.1814 9.77109 43.151 9.75139C43.1207 9.73168 43.0958 9.6646 43.0958 9.6023C43.0958 9.54 43.0739 9.44379 43.0471 9.38845C43.0202 9.3331 42.9737 9.22255 42.9437 9.14286C42.8187 8.81122 42.634 8.4474 42.5905 8.4474C42.565 8.4474 42.544 8.39524 42.544 8.33149C42.544 8.26774 42.5239 8.21558 42.4992 8.21558C42.4745 8.21558 42.4206 8.12547 42.3795 8.01535C42.3384 7.90524 42.284 7.82859 42.2588 7.84496C42.2337 7.86134 42.213 7.82671 42.213 7.76817C42.213 7.70949 42.1633 7.62401 42.1026 7.57808C42.0419 7.53215 41.9923 7.4713 41.9923 7.4429C41.9923 7.36539 40.9727 6.30307 40.8982 6.30307C40.8626 6.30307 40.8335 6.28134 40.8335 6.25497C40.8335 6.22846 40.7652 6.16978 40.6818 6.12457C40.5983 6.07922 40.4819 5.99664 40.4231 5.94086C40.3642 5.88507 40.2835 5.83944 40.2438 5.83944C40.2039 5.83944 40.1713 5.81336 40.1713 5.78148C40.1713 5.74961 40.1202 5.72353 40.0577 5.72353C39.9952 5.72353 39.9595 5.69745 39.9782 5.66557C39.997 5.6337 39.9613 5.60762 39.8988 5.60762C39.8363 5.60762 39.7851 5.58154 39.7851 5.54966C39.7851 5.51779 39.723 5.49171 39.6471 5.49171C39.5713 5.49171 39.5092 5.46563 39.5092 5.43375C39.5092 5.40188 39.458 5.3758 39.3955 5.3758C39.333 5.3758 39.2973 5.34972 39.3161 5.31784C39.3359 5.28408 39.2809 5.25989 39.1846 5.25989C39.0936 5.25989 39.0038 5.23381 38.985 5.20193C38.9662 5.17006 38.9027 5.14398 38.8437 5.14398C38.7848 5.14398 38.7367 5.1179 38.7367 5.08602C38.7367 5.05415 38.6374 5.02807 38.516 5.02807C38.3946 5.02807 38.2953 5.00199 38.2953 4.97011C38.2953 4.93737 38.139 4.91216 37.9366 4.91216C37.7342 4.91216 37.5779 4.88695 37.5779 4.8542C37.5779 4.8216 37.4233 4.79625 37.2244 4.79625H36.871L36.8423 4.23119C36.799 3.38215 36.6445 2.72262 36.4046 2.36374C36.3519 2.28492 36.3088 2.18987 36.3088 2.15249C36.3088 2.11526 36.2343 2.00094 36.1433 1.8985C36.0522 1.79607 35.9778 1.69204 35.9778 1.66726C35.9778 1.58975 35.2957 0.888496 35.1363 0.801998C35.0528 0.756794 34.9845 0.698114 34.9845 0.6716C34.9845 0.64523 34.9503 0.623497 34.9085 0.623497C34.8667 0.623497 34.8012 0.583943 34.763 0.535551C34.7002 0.456153 34.5257 0.360672 34.1706 0.211873C34.1024 0.18333 33.9807 0.127259 33.9001 0.0874149C33.6916 -0.0158897 31.3342 -0.0158897 31.3013 0.0874149C31.2887 0.127259 31.2314 0.159858 31.174 0.159858C31.0577 0.159858 30.553 0.396169 30.5243 0.464121C30.5141 0.488028 30.4637 0.507588 30.4123 0.507588C30.3608 0.507588 30.2829 0.559747 30.2391 0.623497C30.1954 0.687248 30.1405 0.739407 30.1172 0.739407C30.0766 0.739407 29.9213 0.861837 29.7679 1.01469C29.6427 1.13959 29.2753 1.01759 29.3957 0.891249C29.4145 0.871399 29.3875 0.855317 29.3356 0.855317C29.2837 0.855317 29.188 0.803157 29.1229 0.739407C29.0578 0.675657 28.9718 0.623497 28.9321 0.623497C28.8922 0.623497 28.8597 0.597418 28.8597 0.565542C28.8597 0.533667 28.8274 0.507588 28.7879 0.507588C28.6864 0.507588 28.4192 0.371249 28.4187 0.319234C28.4184 0.295328 28.3686 0.275768 28.3079 0.275768C28.2472 0.275768 28.1975 0.249688 28.1975 0.217813C28.1975 0.185938 28.1156 0.159858 28.0154 0.159858C27.9153 0.159858 27.8023 0.127259 27.7645 0.0874149C27.696 0.0152611 25.8001 -0.032117 25.3144 0.0261276ZM26.9836 57.5931C26.9836 57.625 27.0208 57.6511 27.0664 57.6511C27.1119 57.6511 27.1491 57.625 27.1491 57.5931C27.1491 57.5613 27.1119 57.5352 27.0664 57.5352C27.0208 57.5352 26.9836 57.5613 26.9836 57.5931ZM25.7835 57.9229C25.8366 57.9374 25.9235 57.9374 25.9766 57.9229C26.0297 57.9083 25.9862 57.8964 25.88 57.8964C25.7738 57.8964 25.7303 57.9083 25.7835 57.9229Z" fill="#4CA2A1"/>
</svg>
